<svg width="19" height="40" viewBox="0 0 19 40" fill="none" xmlns="http://www.w3.org/2000/svg">
<g clip-path="url(#clip0_10756_284595)">
<path d="M16.6279 33.4752C16.2854 34.8584 15.9645 36.2467 15.5912 37.6204C15.3988 38.3271 14.8219 38.72 14.213 39.0379C13.0065 39.6654 11.6962 39.8905 10.3622 39.9677C8.45639 40.0781 6.58244 39.9343 4.82574 39.0713C4.0019 38.6658 3.45679 38.053 3.25726 37.1107C2.99807 35.8913 2.67409 34.6864 2.37891 33.4752C3.37245 33.9161 4.36496 34.3466 5.4305 34.602C6.30165 34.8104 7.18823 34.8792 8.06452 35.0324C9.05395 35.0314 10.0424 35.0293 11.0318 35.0282C11.1398 34.9991 11.2467 34.9501 11.3558 34.9438C12.2681 34.899 13.1515 34.7031 14.035 34.479C14.9432 34.2486 15.7732 33.8338 16.6279 33.4752Z" fill="#5F7D42"/>
<path d="M0.549403 27.6176C0.280962 25.3965 1.53678 24.1145 3.25233 23.118C4.21914 22.5573 5.27645 22.2404 6.34404 21.9517C7.21314 22.4614 8.13777 22.8053 9.13954 22.92C9.13028 22.9513 9.12206 22.9825 9.11383 23.0138C8.4381 22.9888 7.76853 23.068 7.11646 23.2275C5.77939 23.5537 4.51329 24.0321 3.54649 25.0963C2.66403 26.0688 2.59203 27.3362 3.35004 28.3826C3.94452 29.2029 4.77453 29.6803 5.67243 30.0451C7.3417 30.7236 9.07577 30.8623 10.8561 30.66C12.3176 30.4943 13.666 30.0586 14.8704 29.1915C16.4615 28.0449 16.6364 26.2303 15.2325 24.8774C14.0476 23.7361 12.5707 23.2452 10.9641 23.1086C11.0814 22.6042 11.3354 22.1831 11.718 21.8402C13.7997 22.0851 15.7015 22.7741 17.2668 24.2302C18.2398 25.1349 18.6368 26.2783 18.4579 27.6145C18.1833 28.3826 17.8068 29.1008 17.1846 29.6282C15.3579 31.1791 13.2125 31.892 10.8541 32.0077C9.95309 32.0077 9.05109 32.0077 8.15011 32.0077C7.16788 32.0223 6.21548 31.8076 5.29805 31.5001C3.24719 30.8133 1.34239 29.9023 0.549403 27.6176Z" fill="#A5C06A"/>
<path d="M0.549397 27.6176C1.34238 29.9034 3.24719 30.8143 5.3001 31.5033C6.21753 31.8108 7.16993 32.0265 8.15216 32.0109C8.37741 32.1922 8.64379 32.112 8.88549 32.1005C9.54271 32.0692 10.2082 32.2193 10.8561 32.0109C13.2145 31.8952 15.359 31.1823 17.1866 29.6313C17.8078 29.1039 18.1843 28.3858 18.4599 27.6176C18.464 28.7391 18.5165 29.8638 18.4589 30.9821C18.4095 31.9369 17.7492 32.5456 17.0375 33.0823C16.8853 33.197 16.696 33.272 16.6292 33.4763C15.7745 33.8349 14.9445 34.2497 14.0363 34.4801C13.1518 34.7052 12.2693 34.9001 11.357 34.9449C11.248 34.9501 11.141 35.0002 11.0341 35.0293C10.2658 34.8271 9.48409 34.9856 8.70962 34.946C8.49774 34.9355 8.26118 34.8553 8.06782 35.0325C7.19153 34.8793 6.30495 34.8115 5.4338 34.602C4.36826 34.3466 3.37575 33.9162 2.38221 33.4753C2.34312 33.2939 2.18987 33.2283 2.05822 33.1376C1.0112 32.4257 0.400262 31.5033 0.513399 30.1535C0.584366 29.3134 0.541169 28.4629 0.549397 27.6176Z" fill="#739554"/>
<path d="M13.5447 0.652477C14.749 0.865105 15.3908 1.69685 15.7662 2.78188C16.3741 4.53814 16.2291 6.31107 15.7632 8.06525C15.1851 10.2426 14.2091 12.1917 12.4524 13.6592C11.8579 14.1564 11.1801 14.4712 10.4272 14.6265C9.90063 14.6588 9.40386 14.5441 8.92972 14.3148C8.89372 14.2898 8.85772 14.2648 8.82172 14.2408L8.81761 14.2429C8.07194 13.6926 7.64305 12.9015 7.40855 12.0458C7.00846 10.5855 7.08148 9.0794 7.43735 7.62957C7.86726 5.87435 8.54505 4.19731 9.71139 2.79126C10.709 1.59158 11.827 0.555544 13.5447 0.652477ZM14.8745 5.94523C14.8745 5.57209 14.9033 5.19582 14.8653 4.82685C14.8365 4.55794 14.7388 4.29007 14.6369 4.0368C14.0003 2.45564 12.7527 2.05644 11.3652 3.02577C10.2205 3.82625 9.49231 4.96443 9.00377 6.2673C8.38152 7.92558 8.11616 9.60471 8.72813 11.3328C9.12513 12.4533 10.2318 13.0182 11.2531 12.6076C11.7633 12.4022 12.2343 12.1187 12.6139 11.7112C14.1186 10.0946 14.8653 8.16323 14.8745 5.94523Z" fill="#F5CC11"/>
<path d="M13.5446 0.65247C11.8269 0.555537 10.7089 1.59157 9.71231 2.79334C8.54495 4.19939 7.86819 5.87643 7.43827 7.63061C7.08241 9.08043 7.00835 10.5865 7.40947 12.0468C7.64397 12.9025 8.07286 13.6936 8.81854 14.2439C8.71671 14.2419 8.61489 14.2408 8.5141 14.2387C8.32074 14.1637 8.13355 14.0678 7.93401 14.0178C6.60003 13.6842 5.89447 12.7472 5.55404 11.4714C4.96264 9.25554 5.3689 7.12405 6.15983 5.04468C6.71317 3.59069 7.50821 2.28157 8.66014 1.22365C9.88305 0.101098 11.2325 -0.399201 12.8359 0.368967C13.0653 0.478408 13.308 0.558664 13.5446 0.65247Z" fill="#E68927"/>
<path d="M8.51318 14.2387C8.61501 14.2408 8.71683 14.2418 8.81762 14.2439L8.82174 14.2418C8.85774 14.2669 8.89373 14.2919 8.92973 14.3158C9.40388 14.5451 9.90065 14.6598 10.4272 14.6275C10.5126 14.8453 10.6751 15.0048 10.8438 15.1497C11.6861 15.8741 12.2271 16.7819 12.4894 17.8648C12.5892 18.3516 12.5943 18.8467 12.6015 19.3407C12.5069 20.2465 12.1377 21.0532 11.718 21.8422C11.3354 22.1841 11.0804 22.6052 10.9641 23.1107C10.5322 23.8007 10.4674 24.573 10.4684 25.36C10.4684 25.78 10.4766 26.2011 10.4643 26.6201C10.4509 27.111 10.0539 27.5185 9.62706 27.5019C9.20743 27.4852 8.84436 27.0964 8.83202 26.6263C8.81968 26.174 8.82894 25.7216 8.82894 25.2693C8.76414 24.4969 8.99144 23.7621 9.11486 23.0138C9.12309 22.9825 9.13235 22.9512 9.14058 22.9199C9.39462 22.5406 9.5201 22.0997 9.70729 21.688C10.1773 21.0563 10.706 20.4601 10.8736 19.6503C11.1184 18.461 10.8386 17.424 9.96133 16.5891C9.26811 15.9303 8.7014 15.208 8.51318 14.2387Z" fill="#935B2B"/>
<path d="M9.70626 21.688C9.51907 22.0997 9.39462 22.5406 9.13955 22.92C8.13778 22.8053 7.21314 22.4614 6.34405 21.9517C5.07384 20.999 4.19137 19.7837 3.86739 18.1911C3.84785 18.0962 3.82934 18.0004 3.81802 17.9034C3.70489 16.957 3.74809 16.9059 4.70049 17.1019C7.04138 17.5866 8.59649 18.9718 9.31851 21.2919C9.38228 21.4993 9.42445 21.7088 9.70626 21.688Z" fill="#749555"/>
<path d="M12.6023 19.3407C12.5941 18.8467 12.59 18.3516 12.4902 17.8648C12.8348 17.0675 13.1392 16.2493 13.7193 15.5801C14.7838 14.3523 16.1096 13.6571 17.7182 13.4914C18.1069 13.4518 18.1872 13.5675 18.1501 13.9365C17.8436 16.9664 15.5953 19.1646 12.6023 19.3407Z" fill="#749555"/>
<path d="M8.06445 35.0324C8.25781 34.8552 8.4954 34.9345 8.70624 34.9459C9.48071 34.9855 10.2624 34.8271 11.0307 35.0293C10.0433 35.0304 9.05388 35.0314 8.06445 35.0324Z" fill="#92AA7B"/>
<path d="M9.11499 23.0138C8.9926 23.7621 8.76529 24.4959 8.82906 25.2693C8.27058 25.3016 7.76352 25.508 7.30995 25.8123C6.45217 26.3887 6.46143 27.3393 7.31098 27.9188C8.24487 28.5556 9.29395 28.5921 10.3523 28.4399C10.9355 28.3566 11.5011 28.1585 11.9485 27.7239C12.4381 27.2476 12.4607 26.5753 11.9938 26.0844C11.5783 25.6466 11.065 25.4121 10.4685 25.361C10.4685 24.5741 10.5323 23.8007 10.9643 23.1117C12.5708 23.2472 14.0477 23.7392 15.2326 24.8805C16.6365 26.2334 16.4627 28.048 14.8705 29.1946C13.6662 30.0617 12.3178 30.4985 10.8563 30.6631C9.07488 30.8653 7.34183 30.7257 5.67256 30.0482C4.77466 29.6834 3.94363 29.206 3.35017 28.3857C2.59216 27.3393 2.66416 26.0719 3.54662 25.0994C4.51342 24.0342 5.77952 23.5568 7.11659 23.2306C7.76969 23.068 8.43823 22.9888 9.11499 23.0138Z" fill="#AB7029"/>
<path d="M10.8563 32.0098C10.2083 32.2182 9.54289 32.0692 8.88567 32.0994C8.64397 32.1109 8.37759 32.1911 8.15234 32.0098C9.05332 32.0098 9.9543 32.0098 10.8563 32.0098Z" fill="#A5BD81"/>
<path d="M14.8746 5.94525C14.8653 8.16325 14.1186 10.0936 12.6129 11.7112C12.2344 12.1187 11.7623 12.4022 11.2522 12.6076C10.2309 13.0182 9.12417 12.4533 8.72717 11.3329C8.1152 9.60474 8.38159 7.9256 9.00281 6.26732C9.49135 4.96446 10.2185 3.82523 11.3643 3.02579C12.7517 2.05646 13.9993 2.45566 14.636 4.03682C14.7378 4.29009 14.8365 4.55796 14.8643 4.82687C14.9044 5.19584 14.8746 5.57211 14.8746 5.94525ZM12.402 6.30588C12.6324 6.33298 12.9225 6.04427 13.0109 5.71386C13.0891 5.42202 12.8248 5.48143 12.6962 5.39805C12.6016 5.33655 12.4082 5.39805 12.4288 5.19063C12.4422 5.0593 12.5676 4.87482 12.3126 4.86648C12.111 4.86023 11.9207 4.93006 11.9156 5.18959C11.9114 5.41264 11.7911 5.54084 11.6142 5.65133C11.3488 5.81809 11.1596 6.06407 11.0115 6.33611C10.526 7.22623 10.7019 7.72132 11.6235 8.09341C11.9094 8.20911 11.9824 8.41027 11.8178 8.67293C11.6296 8.97311 11.3704 9.18469 11.0197 8.9679C10.5857 8.70003 10.5322 9.08984 10.3954 9.30664C10.1866 9.63705 10.4859 9.67457 10.6834 9.75587C10.8377 9.81945 10.9765 9.8799 10.957 10.0957C10.9467 10.2103 10.8881 10.3896 11.0845 10.401C11.2481 10.4104 11.392 10.3354 11.462 10.1561C11.5299 9.98517 11.5124 9.78193 11.7315 9.67249C12.1089 9.48383 12.3095 9.11694 12.4854 8.7511C12.8978 7.89225 12.7425 7.52745 11.8508 7.22831C11.6924 7.17516 11.5381 7.13138 11.5165 6.93126C11.4949 6.72801 11.5268 6.54248 11.6996 6.4049C11.9207 6.23084 12.1562 6.17664 12.402 6.30588Z" fill="#F49C1D"/>
<path d="M8.9315 14.3158C8.89525 14.2908 8.859 14.2658 8.82275 14.2418C8.85797 14.2658 8.89525 14.2908 8.9315 14.3158Z" fill="#E68927"/>
<path d="M10.4682 25.3599C11.0648 25.411 11.578 25.6455 11.9935 26.0833C12.4605 26.5742 12.4378 27.2475 11.9483 27.7228C11.5019 28.1575 10.9362 28.3544 10.352 28.4389C9.29263 28.591 8.24355 28.5535 7.31069 27.9177C6.46114 27.3382 6.45188 26.3876 7.30966 25.8113C7.76221 25.5069 8.27029 25.3005 8.82878 25.2682C8.82878 25.7206 8.81952 26.174 8.83186 26.6253C8.8442 27.0954 9.2083 27.4841 9.6269 27.5008C10.0548 27.5185 10.4507 27.1099 10.4641 26.619C10.4765 26.2011 10.4682 25.78 10.4682 25.3599Z" fill="#804D1F"/>
<path d="M12.4018 6.30588C12.156 6.17663 11.9205 6.23083 11.6993 6.40698C11.5276 6.54456 11.4947 6.73009 11.5163 6.93334C11.5379 7.13346 11.6921 7.17723 11.8505 7.23039C12.7412 7.53057 12.8976 7.89433 12.4851 8.75318C12.3103 9.11798 12.1087 9.48591 11.7312 9.67456C11.5121 9.784 11.5286 9.98725 11.4617 10.1582C11.3918 10.3375 11.2478 10.4125 11.0843 10.4031C10.8878 10.3917 10.9465 10.2124 10.9567 10.0977C10.9763 9.88198 10.8374 9.82152 10.6832 9.75795C10.4857 9.67665 10.1864 9.63912 10.3952 9.30872C10.532 9.09192 10.5855 8.7021 11.0195 8.96997C11.3712 9.18677 11.6304 8.97518 11.8176 8.675C11.9822 8.41235 11.9092 8.21118 11.6232 8.09549C10.7006 7.72339 10.5248 7.2283 11.0113 6.33819C11.1594 6.06615 11.3496 5.81913 11.614 5.6534C11.7898 5.54292 11.9102 5.41472 11.9153 5.19167C11.9205 4.93214 12.1097 4.86126 12.3123 4.86856C12.5674 4.8769 12.4419 5.06138 12.4286 5.19271C12.408 5.40013 12.6024 5.33863 12.696 5.40013C12.8245 5.48351 13.0889 5.42514 13.0107 5.71594C12.9222 6.04426 12.6322 6.33298 12.4018 6.30588Z" fill="#FCC986"/>
</g>
<defs>
<clipPath id="clip0_10756_284595">
<rect width="18" height="40" fill="white" transform="translate(0.5)"/>
</clipPath>
</defs>
</svg>
