<svg width="80" height="16" viewBox="0 0 80 16" fill="none" xmlns="http://www.w3.org/2000/svg">
<g clip-path="url(#clip0_10756_284631)">
<path d="M21.75 0.25H2.25C1.14543 0.25 0.25 1.14543 0.25 2.25V13.75C0.25 14.8546 1.14543 15.75 2.25 15.75H21.75C22.8546 15.75 23.75 14.8546 23.75 13.75V2.25C23.75 1.14543 22.8546 0.25 21.75 0.25Z" fill="#F6F5F5" stroke="black" stroke-opacity="0.2" stroke-width="0.5"/>
<path d="M2.78773 5.91444C2.26459 5.62751 1.66754 5.39674 1 5.23659L1.028 5.11188H3.76498C4.13596 5.12489 4.43699 5.23651 4.53495 5.63071L5.12977 8.46659L5.31198 9.32073L6.97797 5.11188H8.77679L6.10288 11.2775H4.30397L2.78773 5.91444ZM10.1 11.2841H8.39883L9.46285 5.11188H11.1639L10.1 11.2841ZM16.2668 5.26277L16.0354 6.59559L15.8816 6.53004C15.5737 6.40525 15.1674 6.28054 14.6144 6.29371C13.9427 6.29371 13.6415 6.56277 13.6345 6.82546C13.6345 7.11441 13.9989 7.30484 14.5939 7.58725C15.574 8.02719 16.0286 8.56557 16.0218 9.26819C16.0081 10.5486 14.846 11.3761 13.0611 11.3761C12.2979 11.3694 11.5628 11.2181 11.1638 11.0476L11.4019 9.66205L11.6259 9.76066C12.1789 9.99071 12.5428 10.089 13.222 10.089C13.7118 10.089 14.2369 9.89838 14.2436 9.48488C14.2436 9.21565 14.0199 9.01851 13.3617 8.71646C12.7178 8.42087 11.8568 7.92848 11.8708 7.04198C11.8781 5.84042 13.0611 5 14.741 5C15.399 5 15.9312 5.13789 16.2668 5.26277ZM18.5278 9.09749H19.9417C19.8718 8.78889 19.5496 7.31147 19.5496 7.31147L19.4307 6.77964C19.3467 7.00943 19.1999 7.38373 19.2069 7.37056C19.2069 7.37056 18.6678 8.7429 18.5278 9.09749ZM20.6276 5.11188L22 11.284H20.4249C20.4249 11.284 20.2708 10.5748 20.2219 10.3581H18.0378C17.9746 10.5222 17.6808 11.284 17.6808 11.284H15.8958L18.4226 5.62399C18.5977 5.22342 18.906 5.11188 19.3118 5.11188H20.6276Z" fill="#171E6C"/>
</g>
<g clip-path="url(#clip1_10756_284631)">
<path d="M50 0H30C28.8954 0 28 0.89543 28 2V14C28 15.1046 28.8954 16 30 16H50C51.1046 16 52 15.1046 52 14V2C52 0.89543 51.1046 0 50 0Z" fill="#252525"/>
<path d="M37 13C39.7614 13 42 10.7614 42 8C42 5.23858 39.7614 3 37 3C34.2386 3 32 5.23858 32 8C32 10.7614 34.2386 13 37 13Z" fill="#EB001B"/>
<path d="M43 13C45.7614 13 48 10.7614 48 8C48 5.23858 45.7614 3 43 3C40.2386 3 38 5.23858 38 8C38 10.7614 40.2386 13 43 13Z" fill="#F79E1B"/>
<path fill-rule="evenodd" clip-rule="evenodd" d="M40 3.99963C41.2144 4.91184 42 6.36418 42 8C42 9.63582 41.2144 11.0882 40 12.0004C38.7856 11.0882 38 9.63582 38 8C38 6.36418 38.7856 4.91184 40 3.99963Z" fill="#FF5F00"/>
</g>
<g clip-path="url(#clip2_10756_284631)">
<path d="M77.9972 15.7499L77.9994 15.7499C78.9545 15.7581 79.7381 14.9773 79.75 14.0042L79.75 2.0063C79.7462 1.53569 79.5589 1.08617 79.2297 0.756802C78.9014 0.428269 78.4589 0.246149 77.9972 0.250071L58.0006 0.250062C57.5411 0.246149 57.0986 0.428269 56.7703 0.756802C56.4411 1.08617 56.2538 1.53569 56.25 2.00426L56.25 13.9937C56.2538 14.4643 56.4411 14.9138 56.7703 15.2432C57.0986 15.5717 57.5411 15.7538 58.0028 15.7499H77.9972ZM77.9962 16.2499C77.9958 16.2499 77.9955 16.2499 77.9951 16.2499L77.9972 16.2499H77.9962Z" fill="#F6F5F5" stroke="black" stroke-opacity="0.2" stroke-width="0.5"/>
<path d="M68.6123 15.9999H77.9971C78.5239 16.0043 79.0309 15.7993 79.4065 15.4299C79.7821 15.0605 79.9955 14.557 79.9999 14.0303V11.6716C76.4561 13.706 72.6127 15.1668 68.6123 15.9999Z" fill="#F27712"/>
<path d="M79.1725 9.29648H78.32L77.3601 8.03027H77.269V9.29648H76.5738V6.15165H77.6C78.4028 6.15165 78.8663 6.48269 78.8663 7.07855C78.8663 7.56682 78.5766 7.88131 78.0552 7.98062L79.1725 9.29648ZM78.1463 7.10338C78.1463 6.79717 77.9145 6.63993 77.4842 6.63993H77.269V7.59165H77.4676C77.9145 7.59165 78.1463 7.42613 78.1463 7.10338ZM74.1407 6.15165H76.1104V6.68131H74.8359V7.38476H76.0607V7.92269H74.8359V8.7751H76.1104V9.30476H74.1407V6.15165ZM71.9063 9.37924L70.4001 6.14338H71.1614L72.1132 8.262L73.0732 6.14338H73.818L72.2952 9.37924H71.9228H71.9063ZM65.6083 9.37096C64.549 9.37096 63.7214 8.65096 63.7214 7.71579C63.7214 6.80544 64.5656 6.06889 65.6249 6.06889C65.9228 6.06889 66.1711 6.12682 66.4773 6.25924V6.98751C66.2454 6.75969 65.9334 6.63192 65.6083 6.63165C64.9463 6.63165 64.4414 7.11165 64.4414 7.71579C64.4414 8.35303 64.938 8.8082 65.6414 8.8082C65.9559 8.8082 66.1959 8.70889 66.4773 8.46062V9.18889C66.1628 9.32131 65.898 9.37096 65.6083 9.37096ZM63.5063 8.33648C63.5063 8.94889 63.0014 9.37096 62.2732 9.37096C61.7435 9.37096 61.3628 9.18889 61.0401 8.7751L61.4952 8.38613C61.6525 8.66751 61.9173 8.8082 62.2483 8.8082C62.5628 8.8082 62.7863 8.61786 62.7863 8.36958C62.7863 8.22889 62.7201 8.12131 62.5794 8.03855C62.4251 7.96369 62.2645 7.90276 62.0994 7.85648C61.4456 7.64958 61.2221 7.42613 61.2221 6.98751C61.2221 6.47441 61.7021 6.08544 62.3311 6.08544C62.7283 6.08544 63.0842 6.20958 63.3821 6.44131L63.018 6.8551C62.8737 6.69688 62.6694 6.60676 62.4552 6.60682C62.1573 6.60682 61.9421 6.75579 61.9421 6.95441C61.9421 7.11993 62.0663 7.21096 62.4801 7.35165C63.2745 7.59993 63.5063 7.83165 63.5063 8.34476V8.33648ZM60.0883 6.15165H60.7835V9.30476H60.0883V6.15165ZM57.8538 9.30476H56.8276V6.15165H57.8538C58.9794 6.15165 59.7573 6.79717 59.7573 7.72407C59.7573 8.19579 59.5256 8.64269 59.1201 8.94062C58.7725 9.18889 58.3835 9.30476 57.8456 9.30476H57.8538ZM58.6649 6.93786C58.4332 6.75579 58.1683 6.68958 57.7132 6.68958H57.5228V8.7751H57.7132C58.1601 8.7751 58.4414 8.69234 58.6649 8.52682C58.9049 8.3282 59.0456 8.03027 59.0456 7.72407C59.0456 7.41786 58.9049 7.1282 58.6649 6.93786Z" fill="black"/>
<path d="M68.414 6.06889C67.5036 6.06889 66.7588 6.79717 66.7588 7.69924C66.7588 8.65924 67.4705 9.37924 68.414 9.37924C69.3409 9.37924 70.0691 8.65096 70.0691 7.72407C70.0691 6.79717 69.3491 6.06889 68.414 6.06889Z" fill="#F27712"/>
</g>
<defs>
<clipPath id="clip0_10756_284631">
<rect width="24" height="16" fill="white"/>
</clipPath>
<clipPath id="clip1_10756_284631">
<rect width="24" height="16" fill="white" transform="translate(28)"/>
</clipPath>
<clipPath id="clip2_10756_284631">
<rect width="24" height="16" fill="white" transform="translate(56)"/>
</clipPath>
</defs>
</svg>
