<svg width="166" height="50" viewBox="0 0 166 50" fill="none" xmlns="http://www.w3.org/2000/svg">
<g clip-path="url(#clip0_10756_284744)">
<rect width="78" height="50" rx="3.65194" fill="#52057B"/>
<g filter="url(#filter0_f_10756_284744)">
<circle cx="70.0718" cy="33.0956" r="24.4223" fill="#892CDC"/>
</g>
<g filter="url(#filter1_f_10756_284744)">
<circle cx="10.3851" cy="8.55898" r="33.2098" fill="#BC6FF1" fill-opacity="0.6"/>
</g>
<rect x="4.42285" y="25.2114" width="69.8846" height="9.73077" rx="2.65385" fill="#4B127C"/>
<path d="M57.5465 31.8965V31.3952C57.5465 31.3587 57.5483 31.3231 57.552 31.2884C57.5574 31.2537 57.5657 31.2209 57.5766 31.1898C57.5565 31.2154 57.5328 31.2382 57.5054 31.2583C57.478 31.2784 57.4488 31.2985 57.4177 31.3185L56.985 31.5705L56.8234 31.2966L57.2589 31.0446C57.2918 31.0246 57.3237 31.0081 57.3548 30.9953C57.3876 30.9826 57.4214 30.9734 57.4561 30.968C57.4214 30.9643 57.3876 30.9552 57.3548 30.9406C57.3237 30.926 57.2918 30.9086 57.2589 30.8885L56.8234 30.6338L56.9823 30.3599L57.4177 30.6174C57.4488 30.6375 57.478 30.6585 57.5054 30.6804C57.5346 30.7004 57.5593 30.7233 57.5793 30.7488C57.5666 30.7178 57.5574 30.6849 57.552 30.6502C57.5483 30.6155 57.5465 30.5799 57.5465 30.5434V30.0367H57.8697V30.5379C57.8697 30.5763 57.8669 30.6137 57.8615 30.6502C57.8578 30.6849 57.8496 30.7178 57.8368 30.7488C57.8569 30.7233 57.8806 30.7004 57.908 30.6804C57.9354 30.6585 57.9655 30.6375 57.9984 30.6174L58.4312 30.3654L58.5928 30.6393L58.1573 30.8885C58.1244 30.9086 58.0915 30.926 58.0587 30.9406C58.0276 30.9533 57.9948 30.9625 57.9601 30.968C58.0221 30.9789 58.0879 31.0045 58.1573 31.0446L58.5928 31.2994L58.4339 31.5733L57.9984 31.3185C57.9655 31.2985 57.9354 31.2784 57.908 31.2583C57.8806 31.2382 57.856 31.2154 57.8341 31.1898C57.8578 31.2482 57.8697 31.3158 57.8697 31.3925V31.8965H57.5465ZM59.8493 31.8965V31.3952C59.8493 31.3587 59.8512 31.3231 59.8548 31.2884C59.8603 31.2537 59.8685 31.2209 59.8795 31.1898C59.8594 31.2154 59.8356 31.2382 59.8083 31.2583C59.7809 31.2784 59.7517 31.2985 59.7206 31.3185L59.2879 31.5705L59.1263 31.2966L59.5618 31.0446C59.5946 31.0246 59.6266 31.0081 59.6576 30.9953C59.6905 30.9826 59.7243 30.9734 59.759 30.968C59.7243 30.9643 59.6905 30.9552 59.6576 30.9406C59.6266 30.926 59.5946 30.9086 59.5618 30.8885L59.1263 30.6338L59.2851 30.3599L59.7206 30.6174C59.7517 30.6375 59.7809 30.6585 59.8083 30.6804C59.8375 30.7004 59.8621 30.7233 59.8822 30.7488C59.8694 30.7178 59.8603 30.6849 59.8548 30.6502C59.8512 30.6155 59.8493 30.5799 59.8493 30.5434V30.0367H60.1725V30.5379C60.1725 30.5763 60.1698 30.6137 60.1643 30.6502C60.1607 30.6849 60.1525 30.7178 60.1397 30.7488C60.1598 30.7233 60.1835 30.7004 60.2109 30.6804C60.2383 30.6585 60.2684 30.6375 60.3013 30.6174L60.734 30.3654L60.8956 30.6393L60.4601 30.8885C60.4273 30.9086 60.3944 30.926 60.3615 30.9406C60.3305 30.9533 60.2976 30.9625 60.2629 30.968C60.325 30.9789 60.3907 31.0045 60.4601 31.0446L60.8956 31.2994L60.7368 31.5733L60.3013 31.3185C60.2684 31.2985 60.2383 31.2784 60.2109 31.2583C60.1835 31.2382 60.1588 31.2154 60.1369 31.1898C60.1607 31.2482 60.1725 31.3158 60.1725 31.3925V31.8965H59.8493ZM62.1522 31.8965V31.3952C62.1522 31.3587 62.154 31.3231 62.1577 31.2884C62.1632 31.2537 62.1714 31.2209 62.1823 31.1898C62.1622 31.2154 62.1385 31.2382 62.1111 31.2583C62.0837 31.2784 62.0545 31.2985 62.0235 31.3185L61.5907 31.5705L61.4291 31.2966L61.8646 31.0446C61.8975 31.0246 61.9294 31.0081 61.9605 30.9953C61.9933 30.9826 62.0271 30.9734 62.0618 30.968C62.0271 30.9643 61.9933 30.9552 61.9605 30.9406C61.9294 30.926 61.8975 30.9086 61.8646 30.8885L61.4291 30.6338L61.588 30.3599L62.0235 30.6174C62.0545 30.6375 62.0837 30.6585 62.1111 30.6804C62.1403 30.7004 62.165 30.7233 62.1851 30.7488C62.1723 30.7178 62.1632 30.6849 62.1577 30.6502C62.154 30.6155 62.1522 30.5799 62.1522 30.5434V30.0367H62.4754V30.5379C62.4754 30.5763 62.4727 30.6137 62.4672 30.6502C62.4635 30.6849 62.4553 30.7178 62.4425 30.7488C62.4626 30.7233 62.4864 30.7004 62.5137 30.6804C62.5411 30.6585 62.5713 30.6375 62.6041 30.6174L63.0369 30.3654L63.1985 30.6393L62.763 30.8885C62.7301 30.9086 62.6973 30.926 62.6644 30.9406C62.6333 30.9533 62.6005 30.9625 62.5658 30.968C62.6279 30.9789 62.6936 31.0045 62.763 31.0446L63.1985 31.2994L63.0396 31.5733L62.6041 31.3185C62.5713 31.2985 62.5411 31.2784 62.5137 31.2583C62.4864 31.2382 62.4617 31.2154 62.4398 31.1898C62.4635 31.2482 62.4754 31.3158 62.4754 31.3925V31.8965H62.1522ZM64.4551 31.8965V31.3952C64.4551 31.3587 64.4569 31.3231 64.4605 31.2884C64.466 31.2537 64.4742 31.2209 64.4852 31.1898C64.4651 31.2154 64.4414 31.2382 64.414 31.2583C64.3866 31.2784 64.3574 31.2985 64.3263 31.3185L63.8936 31.5705L63.732 31.2966L64.1675 31.0446C64.2003 31.0246 64.2323 31.0081 64.2633 30.9953C64.2962 30.9826 64.33 30.9734 64.3647 30.968C64.33 30.9643 64.2962 30.9552 64.2633 30.9406C64.2323 30.926 64.2003 30.9086 64.1675 30.8885L63.732 30.6338L63.8908 30.3599L64.3263 30.6174C64.3574 30.6375 64.3866 30.6585 64.414 30.6804C64.4432 30.7004 64.4678 30.7233 64.4879 30.7488C64.4752 30.7178 64.466 30.6849 64.4605 30.6502C64.4569 30.6155 64.4551 30.5799 64.4551 30.5434V30.0367H64.7783V30.5379C64.7783 30.5763 64.7755 30.6137 64.77 30.6502C64.7664 30.6849 64.7582 30.7178 64.7454 30.7488C64.7655 30.7233 64.7892 30.7004 64.8166 30.6804C64.844 30.6585 64.8741 30.6375 64.907 30.6174L65.3397 30.3654L65.5013 30.6393L65.0659 30.8885C65.033 30.9086 65.0001 30.926 64.9672 30.9406C64.9362 30.9533 64.9033 30.9625 64.8686 30.968C64.9307 30.9789 64.9965 31.0045 65.0659 31.0446L65.5013 31.2994L65.3425 31.5733L64.907 31.3185C64.8741 31.2985 64.844 31.2784 64.8166 31.2583C64.7892 31.2382 64.7646 31.2154 64.7427 31.1898C64.7664 31.2482 64.7783 31.3158 64.7783 31.3925V31.8965H64.4551Z" fill="#FDFDFD"/>
<path d="M57.5902 26.3171C50.9839 29.5136 45.4732 34.3216 57.5902 35.6827C72.7364 37.384 76.6035 23.4638 55.012 22.9998" stroke="white" stroke-width="0.884615" stroke-linecap="round"/>
<rect y="10.6152" width="78.2885" height="7.96154" fill="#8428D4"/>
</g>
<g clip-path="url(#clip1_10756_284744)">
<rect x="88" width="78" height="50" rx="3.65194" fill="#52057B"/>
<g filter="url(#filter2_f_10756_284744)">
<circle cx="158.072" cy="33.0956" r="24.4223" fill="#892CDC"/>
</g>
<g filter="url(#filter3_f_10756_284744)">
<circle cx="98.3851" cy="8.55898" r="33.2098" fill="#BC6FF1" fill-opacity="0.6"/>
</g>
<path d="M100.061 42.2913C100.061 41.9228 100.123 41.6352 100.246 41.4285C100.372 41.2198 100.587 41.1154 100.892 41.1154C101.196 41.1154 101.41 41.2198 101.534 41.4285C101.66 41.6352 101.723 41.9228 101.723 42.2913C101.723 42.6641 101.66 42.9559 101.534 43.1668C101.41 43.3756 101.196 43.48 100.892 43.48C100.587 43.48 100.372 43.3756 100.246 43.1668C100.123 42.9559 100.061 42.6641 100.061 42.2913ZM101.365 42.2913C101.365 42.1187 101.353 41.9728 101.329 41.8535C101.308 41.7342 101.263 41.6373 101.195 41.5627C101.127 41.486 101.026 41.4477 100.892 41.4477C100.757 41.4477 100.656 41.486 100.588 41.5627C100.52 41.6373 100.474 41.7342 100.451 41.8535C100.429 41.9728 100.419 42.1187 100.419 42.2913C100.419 42.4702 100.429 42.6204 100.451 42.7418C100.472 42.8633 100.517 42.9613 100.585 43.0358C100.655 43.1104 100.757 43.1477 100.892 43.1477C101.026 43.1477 101.127 43.1104 101.195 43.0358C101.266 42.9613 101.311 42.8633 101.333 42.7418C101.354 42.6204 101.365 42.4702 101.365 42.2913ZM102.102 41.7321C102.114 41.534 102.19 41.3795 102.328 41.2687C102.469 41.158 102.648 41.1026 102.865 41.1026C103.014 41.1026 103.143 41.1292 103.252 41.1825C103.361 41.2357 103.443 41.3082 103.498 41.3998C103.553 41.4914 103.581 41.5947 103.581 41.7097C103.581 41.8418 103.546 41.9547 103.476 42.0484C103.405 42.1422 103.321 42.205 103.223 42.237V42.2498C103.349 42.2881 103.447 42.3584 103.517 42.4607C103.587 42.5608 103.623 42.6897 103.623 42.8473C103.623 42.973 103.594 43.0848 103.536 43.1828C103.479 43.2808 103.394 43.3586 103.281 43.4161C103.168 43.4715 103.032 43.4992 102.875 43.4992C102.645 43.4992 102.455 43.4406 102.306 43.3234C102.159 43.2041 102.08 43.0337 102.07 42.8121H102.421C102.43 42.9251 102.473 43.0177 102.552 43.0902C102.631 43.1605 102.737 43.1956 102.872 43.1956C103.002 43.1956 103.102 43.1605 103.172 43.0902C103.242 43.0177 103.277 42.9251 103.277 42.8121C103.277 42.663 103.23 42.5576 103.134 42.4958C103.04 42.4319 102.895 42.3999 102.699 42.3999H102.616V42.0996H102.702C102.875 42.0974 103.006 42.0687 103.095 42.0133C103.187 41.9579 103.233 41.8706 103.233 41.7513C103.233 41.649 103.2 41.5681 103.134 41.5084C103.068 41.4466 102.974 41.4157 102.852 41.4157C102.733 41.4157 102.641 41.4466 102.574 41.5084C102.508 41.5681 102.469 41.6426 102.456 41.7321H102.102ZM105.235 40.4699L104.366 44.0456H104.008L104.874 40.4699H105.235ZM105.848 42.9911C106.052 42.8143 106.213 42.6694 106.33 42.5565C106.45 42.4415 106.549 42.3222 106.628 42.1986C106.706 42.0751 106.746 41.9515 106.746 41.828C106.746 41.7001 106.715 41.6 106.653 41.5276C106.594 41.4551 106.499 41.4189 106.369 41.4189C106.243 41.4189 106.145 41.4594 106.075 41.5404C106.007 41.6192 105.97 41.7257 105.966 41.8599H105.615C105.621 41.6171 105.694 41.4317 105.832 41.3039C105.973 41.174 106.15 41.109 106.366 41.109C106.598 41.109 106.779 41.1729 106.909 41.3007C107.041 41.4285 107.107 41.5989 107.107 41.812C107.107 41.9654 107.068 42.1134 106.989 42.2561C106.912 42.3967 106.819 42.5235 106.711 42.6364C106.604 42.7472 106.468 42.8761 106.302 43.023L106.158 43.1509H107.171V43.4544H105.618V43.1892L105.848 42.9911ZM107.446 43.0007V42.7259L108.52 41.1857H108.961V42.6843H109.258V43.0007H108.961V43.4864H108.603V43.0007H107.446ZM108.619 41.5563L107.865 42.6843H108.619V41.5563Z" fill="white"/>
<path d="M94.6704 40.8985L94.1902 42.1712H93.9984L93.5182 40.8985H93.6953L94.0952 41.9959L94.4951 40.8985H94.6704ZM95.6049 41.8882H95.0498L94.9475 42.1712H94.7722L95.2324 40.9058H95.4241L95.8824 42.1712H95.7071L95.6049 41.8882ZM95.5574 41.7531L95.3273 41.1103L95.0973 41.7531H95.5574ZM96.2491 42.0361H96.6947V42.1712H96.083V40.8985H96.2491V42.0361ZM97.0373 40.8985V42.1712H96.8711V40.8985H97.0373ZM97.7167 40.8985C97.8555 40.8985 97.9754 40.9247 98.0764 40.977C98.1787 41.0282 98.2566 41.1018 98.3102 41.198C98.365 41.2942 98.3923 41.4074 98.3923 41.5376C98.3923 41.6679 98.365 41.7811 98.3102 41.8773C98.2566 41.9722 98.1787 42.0452 98.0764 42.0964C97.9754 42.1463 97.8555 42.1712 97.7167 42.1712H97.3205V40.8985H97.7167ZM97.7167 42.0343C97.8811 42.0343 98.0065 41.9911 98.0929 41.9046C98.1793 41.817 98.2225 41.6947 98.2225 41.5376C98.2225 41.3794 98.1787 41.2558 98.0911 41.167C98.0046 41.0781 97.8799 41.0337 97.7167 41.0337H97.4867V42.0343H97.7167ZM94.402 42.8985V43.0337H94.055V44.1712H93.8889V43.0337H93.5401V42.8985H94.402ZM95.5871 42.8985V44.1712H95.4209V43.5942H94.7727V44.1712H94.6065V42.8985H94.7727V43.4573H95.4209V42.8985H95.5871ZM96.5409 44.1712L96.2378 43.6508H96.0369V44.1712H95.8708V42.8985H96.2816C96.3778 42.8985 96.4587 42.915 96.5245 42.9478C96.5914 42.9807 96.6413 43.0251 96.6742 43.0811C96.7071 43.1371 96.7235 43.201 96.7235 43.2729C96.7235 43.3605 96.6979 43.4378 96.6468 43.5048C96.5969 43.5717 96.5214 43.6161 96.4204 43.6381L96.7399 44.1712H96.5409ZM96.0369 43.5175H96.2816C96.3717 43.5175 96.4393 43.4956 96.4843 43.4518C96.5293 43.4068 96.5519 43.3471 96.5519 43.2729C96.5519 43.1974 96.5293 43.139 96.4843 43.0976C96.4405 43.0562 96.3729 43.0355 96.2816 43.0355H96.0369V43.5175ZM97.1442 42.8985V43.7038C97.1442 43.817 97.1716 43.901 97.2264 43.9558C97.2824 44.0105 97.3597 44.0379 97.4583 44.0379C97.5557 44.0379 97.6317 44.0105 97.6865 43.9558C97.7425 43.901 97.7705 43.817 97.7705 43.7038V42.8985H97.9367V43.702C97.9367 43.8079 97.9154 43.8973 97.8728 43.9704C97.8302 44.0422 97.7723 44.0958 97.6993 44.1311C97.6275 44.1664 97.5465 44.184 97.4564 44.184C97.3664 44.184 97.2848 44.1664 97.2118 44.1311C97.1399 44.0958 97.0827 44.0422 97.0401 43.9704C96.9987 43.8973 96.978 43.8079 96.978 43.702V42.8985H97.1442Z" fill="white"/>
<circle cx="153.05" cy="41.0841" r="3.19545" fill="#E33A24"/>
<circle cx="157.615" cy="41.084" r="3.19545" fill="#F8CB2E" fill-opacity="0.8"/>
<path d="M95.136 33.6444V35.474C95.136 35.7004 95.0666 35.8794 94.9278 36.0108C94.7915 36.1423 94.6113 36.208 94.3874 36.208C94.1634 36.208 93.982 36.1423 93.8432 36.0108C93.7069 35.8794 93.6387 35.7004 93.6387 35.474H94.0587C94.0611 35.586 94.0891 35.6748 94.1427 35.7406C94.1987 35.8063 94.2802 35.8392 94.3874 35.8392C94.4945 35.8392 94.576 35.8063 94.632 35.7406C94.688 35.6724 94.716 35.5835 94.716 35.474V33.6444H95.136ZM96.5948 33.9803V34.7253H97.4713V35.065H96.5948V35.8428H97.5808V36.1825H96.1785V33.6407H97.5808V33.9803H96.5948ZM100.544 36.1825H100.128L98.8751 34.2871V36.1825H98.4588V33.6407H98.8751L100.128 35.5324V33.6407H100.544V36.1825ZM103.541 36.1825H103.125L101.872 34.2871V36.1825H101.456V33.6407H101.872L103.125 35.5324V33.6407H103.541V36.1825ZM106.334 33.6444L105.494 35.2622V36.1825H105.078V35.2622L104.234 33.6444H104.698L105.286 34.8897L105.874 33.6444H106.334ZM111.648 33.6444L110.896 36.1825H110.425L109.892 34.2615L109.326 36.1825L108.858 36.1861L108.139 33.6444H108.581L109.107 35.7114L109.676 33.6444H110.144L110.673 35.7004L111.203 33.6444H111.648ZM112.773 33.6444V36.1825H112.357V33.6444H112.773ZM114.101 35.8465H114.959V36.1825H113.685V33.6444H114.101V35.8465ZM116.509 36.208C116.339 36.208 116.185 36.1788 116.049 36.1204C115.913 36.0595 115.806 35.9743 115.728 35.8647C115.65 35.7552 115.611 35.6274 115.611 35.4813H116.056C116.066 35.5909 116.109 35.6809 116.184 35.7515C116.262 35.8221 116.37 35.8574 116.509 35.8574C116.653 35.8574 116.765 35.8234 116.845 35.7552C116.925 35.6846 116.966 35.5945 116.966 35.4849C116.966 35.3997 116.94 35.3303 116.889 35.2768C116.84 35.2232 116.778 35.1818 116.703 35.1526C116.63 35.1234 116.527 35.0918 116.396 35.0577C116.23 35.0138 116.095 34.97 115.991 34.9262C115.888 34.8799 115.801 34.8093 115.728 34.7144C115.655 34.6194 115.618 34.4928 115.618 34.3346C115.618 34.1885 115.655 34.0607 115.728 33.9511C115.801 33.8416 115.903 33.7576 116.034 33.6991C116.166 33.6407 116.318 33.6115 116.491 33.6115C116.737 33.6115 116.938 33.6736 117.093 33.7977C117.252 33.9195 117.339 34.0875 117.356 34.3017H116.896C116.889 34.2092 116.845 34.1301 116.765 34.0643C116.684 33.9986 116.579 33.9657 116.447 33.9657C116.328 33.9657 116.23 33.9962 116.155 34.057C116.079 34.1179 116.042 34.2055 116.042 34.32C116.042 34.3979 116.065 34.4624 116.111 34.5135C116.16 34.5622 116.221 34.6012 116.294 34.6304C116.367 34.6596 116.467 34.6913 116.593 34.7253C116.761 34.7716 116.897 34.8179 117.002 34.8641C117.109 34.9104 117.199 34.9822 117.272 35.0796C117.348 35.1745 117.386 35.3023 117.386 35.463C117.386 35.5921 117.35 35.7138 117.28 35.8282C117.212 35.9427 117.11 36.0352 116.977 36.1058C116.845 36.1739 116.689 36.208 116.509 36.208ZM119.4 36.208C119.164 36.208 118.946 36.1532 118.746 36.0437C118.549 35.9317 118.392 35.7771 118.275 35.5799C118.16 35.3803 118.103 35.1563 118.103 34.9079C118.103 34.6596 118.16 34.4368 118.275 34.2396C118.392 34.0424 118.549 33.889 118.746 33.7795C118.946 33.6675 119.164 33.6115 119.4 33.6115C119.638 33.6115 119.856 33.6675 120.053 33.7795C120.253 33.889 120.41 34.0424 120.524 34.2396C120.639 34.4368 120.696 34.6596 120.696 34.9079C120.696 35.1563 120.639 35.3803 120.524 35.5799C120.41 35.7771 120.253 35.9317 120.053 36.0437C119.856 36.1532 119.638 36.208 119.4 36.208ZM119.4 35.8465C119.568 35.8465 119.717 35.8087 119.849 35.7333C119.98 35.6554 120.083 35.5458 120.156 35.4046C120.231 35.261 120.269 35.0954 120.269 34.9079C120.269 34.7205 120.231 34.5561 120.156 34.4149C120.083 34.2737 119.98 34.1654 119.849 34.0899C119.717 34.0144 119.568 33.9767 119.4 33.9767C119.232 33.9767 119.082 34.0144 118.951 34.0899C118.819 34.1654 118.716 34.2737 118.64 34.4149C118.567 34.5561 118.531 34.7205 118.531 34.9079C118.531 35.0954 118.567 35.261 118.64 35.4046C118.716 35.5458 118.819 35.6554 118.951 35.7333C119.082 35.8087 119.232 35.8465 119.4 35.8465ZM123.556 36.1825H123.14L121.887 34.2871V36.1825H121.471V33.6407H121.887L123.14 35.5324V33.6407H123.556V36.1825Z" fill="white"/>
<path d="M94.4093 28.358V27.8567C94.4093 27.8202 94.4111 27.7846 94.4147 27.7499C94.4202 27.7152 94.4284 27.6824 94.4394 27.6513C94.4193 27.6769 94.3956 27.6997 94.3682 27.7198C94.3408 27.7399 94.3116 27.76 94.2805 27.7801L93.8478 28.032L93.6862 27.7581L94.1217 27.5062C94.1545 27.4861 94.1865 27.4696 94.2175 27.4569C94.2504 27.4441 94.2842 27.4349 94.3189 27.4295C94.2842 27.4258 94.2504 27.4167 94.2175 27.4021C94.1865 27.3875 94.1545 27.3701 94.1217 27.35L93.6862 27.0953L93.845 26.8214L94.2805 27.0789C94.3116 27.099 94.3408 27.12 94.3682 27.1419C94.3974 27.162 94.4221 27.1848 94.4421 27.2104C94.4294 27.1793 94.4202 27.1464 94.4147 27.1118C94.4111 27.0771 94.4093 27.0415 94.4093 27.0049V26.4982H94.7325V26.9995C94.7325 27.0378 94.7297 27.0752 94.7243 27.1118C94.7206 27.1464 94.7124 27.1793 94.6996 27.2104C94.7197 27.1848 94.7434 27.162 94.7708 27.1419C94.7982 27.12 94.8283 27.099 94.8612 27.0789L95.294 26.8269L95.4556 27.1008L95.0201 27.35C94.9872 27.3701 94.9543 27.3875 94.9215 27.4021C94.8904 27.4149 94.8575 27.424 94.8229 27.4295C94.8849 27.4404 94.9507 27.466 95.0201 27.5062L95.4556 27.7609L95.2967 28.0348L94.8612 27.7801C94.8283 27.76 94.7982 27.7399 94.7708 27.7198C94.7434 27.6997 94.7188 27.6769 94.6969 27.6513C94.7206 27.7098 94.7325 27.7773 94.7325 27.854V28.358H94.4093ZM96.7121 28.358V27.8567C96.7121 27.8202 96.714 27.7846 96.7176 27.7499C96.7231 27.7152 96.7313 27.6824 96.7423 27.6513C96.7222 27.6769 96.6984 27.6997 96.671 27.7198C96.6437 27.7399 96.6144 27.76 96.5834 27.7801L96.1506 28.032L95.989 27.7581L96.4245 27.5062C96.4574 27.4861 96.4894 27.4696 96.5204 27.4569C96.5533 27.4441 96.5871 27.4349 96.6217 27.4295C96.5871 27.4258 96.5533 27.4167 96.5204 27.4021C96.4894 27.3875 96.4574 27.3701 96.4245 27.35L95.989 27.0953L96.1479 26.8214L96.5834 27.0789C96.6144 27.099 96.6437 27.12 96.671 27.1419C96.7003 27.162 96.7249 27.1848 96.745 27.2104C96.7322 27.1793 96.7231 27.1464 96.7176 27.1118C96.714 27.0771 96.7121 27.0415 96.7121 27.0049V26.4982H97.0353V26.9995C97.0353 27.0378 97.0326 27.0752 97.0271 27.1118C97.0235 27.1464 97.0152 27.1793 97.0025 27.2104C97.0225 27.1848 97.0463 27.162 97.0737 27.1419C97.1011 27.12 97.1312 27.099 97.1641 27.0789L97.5968 26.8269L97.7584 27.1008L97.3229 27.35C97.2901 27.3701 97.2572 27.3875 97.2243 27.4021C97.1933 27.4149 97.1604 27.424 97.1257 27.4295C97.1878 27.4404 97.2535 27.466 97.3229 27.5062L97.7584 27.7609L97.5996 28.0348L97.1641 27.7801C97.1312 27.76 97.1011 27.7399 97.0737 27.7198C97.0463 27.6997 97.0216 27.6769 96.9997 27.6513C97.0235 27.7098 97.0353 27.7773 97.0353 27.854V28.358H96.7121ZM99.015 28.358V27.8567C99.015 27.8202 99.0168 27.7846 99.0205 27.7499C99.026 27.7152 99.0342 27.6824 99.0451 27.6513C99.025 27.6769 99.0013 27.6997 98.9739 27.7198C98.9465 27.7399 98.9173 27.76 98.8863 27.7801L98.4535 28.032L98.2919 27.7581L98.7274 27.5062C98.7603 27.4861 98.7922 27.4696 98.8233 27.4569C98.8561 27.4441 98.8899 27.4349 98.9246 27.4295C98.8899 27.4258 98.8561 27.4167 98.8233 27.4021C98.7922 27.3875 98.7603 27.3701 98.7274 27.35L98.2919 27.0953L98.4508 26.8214L98.8863 27.0789C98.9173 27.099 98.9465 27.12 98.9739 27.1419C99.0031 27.162 99.0278 27.1848 99.0479 27.2104C99.0351 27.1793 99.026 27.1464 99.0205 27.1118C99.0168 27.0771 99.015 27.0415 99.015 27.0049V26.4982H99.3382V26.9995C99.3382 27.0378 99.3355 27.0752 99.33 27.1118C99.3263 27.1464 99.3181 27.1793 99.3053 27.2104C99.3254 27.1848 99.3491 27.162 99.3765 27.1419C99.4039 27.12 99.4341 27.099 99.4669 27.0789L99.8997 26.8269L100.061 27.1008L99.6258 27.35C99.5929 27.3701 99.56 27.3875 99.5272 27.4021C99.4961 27.4149 99.4633 27.424 99.4286 27.4295C99.4907 27.4404 99.5564 27.466 99.6258 27.5062L100.061 27.7609L99.9024 28.0348L99.4669 27.7801C99.4341 27.76 99.4039 27.7399 99.3765 27.7198C99.3491 27.6997 99.3245 27.6769 99.3026 27.6513C99.3263 27.7098 99.3382 27.7773 99.3382 27.854V28.358H99.015ZM101.318 28.358V27.8567C101.318 27.8202 101.32 27.7846 101.323 27.7499C101.329 27.7152 101.337 27.6824 101.348 27.6513C101.328 27.6769 101.304 27.6997 101.277 27.7198C101.249 27.7399 101.22 27.76 101.189 27.7801L100.756 28.032L100.595 27.7581L101.03 27.5062C101.063 27.4861 101.095 27.4696 101.126 27.4569C101.159 27.4441 101.193 27.4349 101.227 27.4295C101.193 27.4258 101.159 27.4167 101.126 27.4021C101.095 27.3875 101.063 27.3701 101.03 27.35L100.595 27.0953L100.754 26.8214L101.189 27.0789C101.22 27.099 101.249 27.12 101.277 27.1419C101.306 27.162 101.331 27.1848 101.351 27.2104C101.338 27.1793 101.329 27.1464 101.323 27.1118C101.32 27.0771 101.318 27.0415 101.318 27.0049V26.4982H101.641V26.9995C101.641 27.0378 101.638 27.0752 101.633 27.1118C101.629 27.1464 101.621 27.1793 101.608 27.2104C101.628 27.1848 101.652 27.162 101.679 27.1419C101.707 27.12 101.737 27.099 101.77 27.0789L102.203 26.8269L102.364 27.1008L101.929 27.35C101.896 27.3701 101.863 27.3875 101.83 27.4021C101.799 27.4149 101.766 27.424 101.731 27.4295C101.794 27.4404 101.859 27.466 101.929 27.5062L102.364 27.7609L102.205 28.0348L101.77 27.7801C101.737 27.76 101.707 27.7399 101.679 27.7198C101.652 27.6997 101.627 27.6769 101.605 27.6513C101.629 27.7098 101.641 27.7773 101.641 27.854V28.358H101.318ZM104.789 28.358V27.8567C104.789 27.8202 104.791 27.7846 104.795 27.7499C104.8 27.7152 104.809 27.6824 104.82 27.6513C104.8 27.6769 104.776 27.6997 104.748 27.7198C104.721 27.7399 104.692 27.76 104.661 27.7801L104.228 28.032L104.066 27.7581L104.502 27.5062C104.535 27.4861 104.567 27.4696 104.598 27.4569C104.631 27.4441 104.664 27.4349 104.699 27.4295C104.664 27.4258 104.631 27.4167 104.598 27.4021C104.567 27.3875 104.535 27.3701 104.502 27.35L104.066 27.0953L104.225 26.8214L104.661 27.0789C104.692 27.099 104.721 27.12 104.748 27.1419C104.778 27.162 104.802 27.1848 104.822 27.2104C104.81 27.1793 104.8 27.1464 104.795 27.1118C104.791 27.0771 104.789 27.0415 104.789 27.0049V26.4982H105.113V26.9995C105.113 27.0378 105.11 27.0752 105.104 27.1118C105.101 27.1464 105.093 27.1793 105.08 27.2104C105.1 27.1848 105.124 27.162 105.151 27.1419C105.178 27.12 105.209 27.099 105.241 27.0789L105.674 26.8269L105.836 27.1008L105.4 27.35C105.367 27.3701 105.335 27.3875 105.302 27.4021C105.271 27.4149 105.238 27.424 105.203 27.4295C105.265 27.4404 105.331 27.466 105.4 27.5062L105.836 27.7609L105.677 28.0348L105.241 27.7801C105.209 27.76 105.178 27.7399 105.151 27.7198C105.124 27.6997 105.099 27.6769 105.077 27.6513C105.101 27.7098 105.113 27.7773 105.113 27.854V28.358H104.789ZM107.092 28.358V27.8567C107.092 27.8202 107.094 27.7846 107.098 27.7499C107.103 27.7152 107.112 27.6824 107.122 27.6513C107.102 27.6769 107.079 27.6997 107.051 27.7198C107.024 27.7399 106.995 27.76 106.964 27.7801L106.531 28.032L106.369 27.7581L106.805 27.5062C106.838 27.4861 106.87 27.4696 106.901 27.4569C106.933 27.4441 106.967 27.4349 107.002 27.4295C106.967 27.4258 106.933 27.4167 106.901 27.4021C106.87 27.3875 106.838 27.3701 106.805 27.35L106.369 27.0953L106.528 26.8214L106.964 27.0789C106.995 27.099 107.024 27.12 107.051 27.1419C107.08 27.162 107.105 27.1848 107.125 27.2104C107.112 27.1793 107.103 27.1464 107.098 27.1118C107.094 27.0771 107.092 27.0415 107.092 27.0049V26.4982H107.416V26.9995C107.416 27.0378 107.413 27.0752 107.407 27.1118C107.404 27.1464 107.395 27.1793 107.383 27.2104C107.403 27.1848 107.426 27.162 107.454 27.1419C107.481 27.12 107.511 27.099 107.544 27.0789L107.977 26.8269L108.139 27.1008L107.703 27.35C107.67 27.3701 107.637 27.3875 107.605 27.4021C107.573 27.4149 107.541 27.424 107.506 27.4295C107.568 27.4404 107.634 27.466 107.703 27.5062L108.139 27.7609L107.98 28.0348L107.544 27.7801C107.511 27.76 107.481 27.7399 107.454 27.7198C107.426 27.6997 107.402 27.6769 107.38 27.6513C107.404 27.7098 107.416 27.7773 107.416 27.854V28.358H107.092ZM109.395 28.358V27.8567C109.395 27.8202 109.397 27.7846 109.401 27.7499C109.406 27.7152 109.414 27.6824 109.425 27.6513C109.405 27.6769 109.382 27.6997 109.354 27.7198C109.327 27.7399 109.298 27.76 109.266 27.7801L108.834 28.032L108.672 27.7581L109.108 27.5062C109.14 27.4861 109.172 27.4696 109.203 27.4569C109.236 27.4441 109.27 27.4349 109.305 27.4295C109.27 27.4258 109.236 27.4167 109.203 27.4021C109.172 27.3875 109.14 27.3701 109.108 27.35L108.672 27.0953L108.831 26.8214L109.266 27.0789C109.298 27.099 109.327 27.12 109.354 27.1419C109.383 27.162 109.408 27.1848 109.428 27.2104C109.415 27.1793 109.406 27.1464 109.401 27.1118C109.397 27.0771 109.395 27.0415 109.395 27.0049V26.4982H109.718V26.9995C109.718 27.0378 109.716 27.0752 109.71 27.1118C109.707 27.1464 109.698 27.1793 109.686 27.2104C109.706 27.1848 109.729 27.162 109.757 27.1419C109.784 27.12 109.814 27.099 109.847 27.0789L110.28 26.8269L110.441 27.1008L110.006 27.35C109.973 27.3701 109.94 27.3875 109.907 27.4021C109.876 27.4149 109.843 27.424 109.809 27.4295C109.871 27.4404 109.937 27.466 110.006 27.5062L110.441 27.7609L110.283 28.0348L109.847 27.7801C109.814 27.76 109.784 27.7399 109.757 27.7198C109.729 27.6997 109.705 27.6769 109.683 27.6513C109.707 27.7098 109.718 27.7773 109.718 27.854V28.358H109.395ZM111.698 28.358V27.8567C111.698 27.8202 111.7 27.7846 111.704 27.7499C111.709 27.7152 111.717 27.6824 111.728 27.6513C111.708 27.6769 111.684 27.6997 111.657 27.7198C111.63 27.7399 111.6 27.76 111.569 27.7801L111.137 28.032L110.975 27.7581L111.41 27.5062C111.443 27.4861 111.475 27.4696 111.506 27.4569C111.539 27.4441 111.573 27.4349 111.608 27.4295C111.573 27.4258 111.539 27.4167 111.506 27.4021C111.475 27.3875 111.443 27.3701 111.41 27.35L110.975 27.0953L111.134 26.8214L111.569 27.0789C111.6 27.099 111.63 27.12 111.657 27.1419C111.686 27.162 111.711 27.1848 111.731 27.2104C111.718 27.1793 111.709 27.1464 111.704 27.1118C111.7 27.0771 111.698 27.0415 111.698 27.0049V26.4982H112.021V26.9995C112.021 27.0378 112.019 27.0752 112.013 27.1118C112.009 27.1464 112.001 27.1793 111.988 27.2104C112.008 27.1848 112.032 27.162 112.06 27.1419C112.087 27.12 112.117 27.099 112.15 27.0789L112.583 26.8269L112.744 27.1008L112.309 27.35C112.276 27.3701 112.243 27.3875 112.21 27.4021C112.179 27.4149 112.146 27.424 112.112 27.4295C112.174 27.4404 112.239 27.466 112.309 27.5062L112.744 27.7609L112.585 28.0348L112.15 27.7801C112.117 27.76 112.087 27.7399 112.06 27.7198C112.032 27.6997 112.008 27.6769 111.986 27.6513C112.009 27.7098 112.021 27.7773 112.021 27.854V28.358H111.698ZM115.17 28.358V27.8567C115.17 27.8202 115.172 27.7846 115.175 27.7499C115.181 27.7152 115.189 27.6824 115.2 27.6513C115.18 27.6769 115.156 27.6997 115.129 27.7198C115.101 27.7399 115.072 27.76 115.041 27.7801L114.608 28.032L114.447 27.7581L114.882 27.5062C114.915 27.4861 114.947 27.4696 114.978 27.4569C115.011 27.4441 115.045 27.4349 115.079 27.4295C115.045 27.4258 115.011 27.4167 114.978 27.4021C114.947 27.3875 114.915 27.3701 114.882 27.35L114.447 27.0953L114.605 26.8214L115.041 27.0789C115.072 27.099 115.101 27.12 115.129 27.1419C115.158 27.162 115.182 27.1848 115.203 27.2104C115.19 27.1793 115.181 27.1464 115.175 27.1118C115.172 27.0771 115.17 27.0415 115.17 27.0049V26.4982H115.493V26.9995C115.493 27.0378 115.49 27.0752 115.485 27.1118C115.481 27.1464 115.473 27.1793 115.46 27.2104C115.48 27.1848 115.504 27.162 115.531 27.1419C115.559 27.12 115.589 27.099 115.622 27.0789L116.054 26.8269L116.216 27.1008L115.78 27.35C115.748 27.3701 115.715 27.3875 115.682 27.4021C115.651 27.4149 115.618 27.424 115.583 27.4295C115.645 27.4404 115.711 27.466 115.78 27.5062L116.216 27.7609L116.057 28.0348L115.622 27.7801C115.589 27.76 115.559 27.7399 115.531 27.7198C115.504 27.6997 115.479 27.6769 115.457 27.6513C115.481 27.7098 115.493 27.7773 115.493 27.854V28.358H115.17ZM117.473 28.358V27.8567C117.473 27.8202 117.474 27.7846 117.478 27.7499C117.484 27.7152 117.492 27.6824 117.503 27.6513C117.483 27.6769 117.459 27.6997 117.431 27.7198C117.404 27.7399 117.375 27.76 117.344 27.7801L116.911 28.032L116.749 27.7581L117.185 27.5062C117.218 27.4861 117.25 27.4696 117.281 27.4569C117.314 27.4441 117.347 27.4349 117.382 27.4295C117.347 27.4258 117.314 27.4167 117.281 27.4021C117.25 27.3875 117.218 27.3701 117.185 27.35L116.749 27.0953L116.908 26.8214L117.344 27.0789C117.375 27.099 117.404 27.12 117.431 27.1419C117.461 27.162 117.485 27.1848 117.505 27.2104C117.493 27.1793 117.484 27.1464 117.478 27.1118C117.474 27.0771 117.473 27.0415 117.473 27.0049V26.4982H117.796V26.9995C117.796 27.0378 117.793 27.0752 117.788 27.1118C117.784 27.1464 117.776 27.1793 117.763 27.2104C117.783 27.1848 117.807 27.162 117.834 27.1419C117.861 27.12 117.892 27.099 117.924 27.0789L118.357 26.8269L118.519 27.1008L118.083 27.35C118.05 27.3701 118.018 27.3875 117.985 27.4021C117.954 27.4149 117.921 27.424 117.886 27.4295C117.948 27.4404 118.014 27.466 118.083 27.5062L118.519 27.7609L118.36 28.0348L117.924 27.7801C117.892 27.76 117.861 27.7399 117.834 27.7198C117.807 27.6997 117.782 27.6769 117.76 27.6513C117.784 27.7098 117.796 27.7773 117.796 27.854V28.358H117.473ZM119.775 28.358V27.8567C119.775 27.8202 119.777 27.7846 119.781 27.7499C119.786 27.7152 119.795 27.6824 119.806 27.6513C119.785 27.6769 119.762 27.6997 119.734 27.7198C119.707 27.7399 119.678 27.76 119.647 27.7801L119.214 28.032L119.052 27.7581L119.488 27.5062C119.521 27.4861 119.553 27.4696 119.584 27.4569C119.617 27.4441 119.65 27.4349 119.685 27.4295C119.65 27.4258 119.617 27.4167 119.584 27.4021C119.553 27.3875 119.521 27.3701 119.488 27.35L119.052 27.0953L119.211 26.8214L119.647 27.0789C119.678 27.099 119.707 27.12 119.734 27.1419C119.764 27.162 119.788 27.1848 119.808 27.2104C119.796 27.1793 119.786 27.1464 119.781 27.1118C119.777 27.0771 119.775 27.0415 119.775 27.0049V26.4982H120.099V26.9995C120.099 27.0378 120.096 27.0752 120.09 27.1118C120.087 27.1464 120.079 27.1793 120.066 27.2104C120.086 27.1848 120.11 27.162 120.137 27.1419C120.164 27.12 120.194 27.099 120.227 27.0789L120.66 26.8269L120.822 27.1008L120.386 27.35C120.353 27.3701 120.32 27.3875 120.288 27.4021C120.257 27.4149 120.224 27.424 120.189 27.4295C120.251 27.4404 120.317 27.466 120.386 27.5062L120.822 27.7609L120.663 28.0348L120.227 27.7801C120.194 27.76 120.164 27.7399 120.137 27.7198C120.11 27.6997 120.085 27.6769 120.063 27.6513C120.087 27.7098 120.099 27.7773 120.099 27.854V28.358H119.775ZM122.078 28.358V27.8567C122.078 27.8202 122.08 27.7846 122.084 27.7499C122.089 27.7152 122.097 27.6824 122.108 27.6513C122.088 27.6769 122.065 27.6997 122.037 27.7198C122.01 27.7399 121.981 27.76 121.95 27.7801L121.517 28.032L121.355 27.7581L121.791 27.5062C121.824 27.4861 121.856 27.4696 121.887 27.4569C121.919 27.4441 121.953 27.4349 121.988 27.4295C121.953 27.4258 121.919 27.4167 121.887 27.4021C121.856 27.3875 121.824 27.3701 121.791 27.35L121.355 27.0953L121.514 26.8214L121.95 27.0789C121.981 27.099 122.01 27.12 122.037 27.1419C122.066 27.162 122.091 27.1848 122.111 27.2104C122.098 27.1793 122.089 27.1464 122.084 27.1118C122.08 27.0771 122.078 27.0415 122.078 27.0049V26.4982H122.401V26.9995C122.401 27.0378 122.399 27.0752 122.393 27.1118C122.39 27.1464 122.381 27.1793 122.369 27.2104C122.389 27.1848 122.412 27.162 122.44 27.1419C122.467 27.12 122.497 27.099 122.53 27.0789L122.963 26.8269L123.125 27.1008L122.689 27.35C122.656 27.3701 122.623 27.3875 122.59 27.4021C122.559 27.4149 122.527 27.424 122.492 27.4295C122.554 27.4404 122.62 27.466 122.689 27.5062L123.125 27.7609L122.966 28.0348L122.53 27.7801C122.497 27.76 122.467 27.7399 122.44 27.7198C122.412 27.6997 122.388 27.6769 122.366 27.6513C122.39 27.7098 122.401 27.7773 122.401 27.854V28.358H122.078ZM127.659 28.6702C127.659 29.0153 127.621 29.3157 127.547 29.5713C127.474 29.8251 127.371 30.0351 127.24 30.2013C127.11 30.3675 126.956 30.4916 126.777 30.5738C126.6 30.6541 126.408 30.6943 126.202 30.6943C125.995 30.6943 125.804 30.6541 125.627 30.5738C125.451 30.4916 125.299 30.3675 125.169 30.2013C125.04 30.0351 124.938 29.8251 124.865 29.5713C124.792 29.3157 124.756 29.0153 124.756 28.6702C124.756 28.3233 124.792 28.0229 124.865 27.7691C124.938 27.5153 125.04 27.3053 125.169 27.1391C125.299 26.973 125.451 26.8497 125.627 26.7694C125.804 26.6872 125.995 26.6461 126.202 26.6461C126.408 26.6461 126.6 26.6872 126.777 26.7694C126.956 26.8497 127.11 26.973 127.24 27.1391C127.371 27.3053 127.474 27.5153 127.547 27.7691C127.621 28.0229 127.659 28.3233 127.659 28.6702ZM126.96 28.6702C126.96 28.3835 126.939 28.1462 126.897 27.9581C126.855 27.77 126.799 27.6203 126.728 27.5089C126.658 27.3975 126.578 27.3199 126.487 27.2761C126.395 27.2304 126.3 27.2076 126.202 27.2076C126.105 27.2076 126.011 27.2304 125.92 27.2761C125.83 27.3199 125.751 27.3975 125.681 27.5089C125.612 27.6203 125.556 27.77 125.514 27.9581C125.474 28.1462 125.454 28.3835 125.454 28.6702C125.454 28.9569 125.474 29.1943 125.514 29.3823C125.556 29.5704 125.612 29.7202 125.681 29.8315C125.751 29.9429 125.83 30.0214 125.92 30.0671C126.011 30.1109 126.105 30.1328 126.202 30.1328C126.3 30.1328 126.395 30.1109 126.487 30.0671C126.578 30.0214 126.658 29.9429 126.728 29.8315C126.799 29.7202 126.855 29.5704 126.897 29.3823C126.939 29.1943 126.96 28.9569 126.96 28.6702ZM129.618 26.6461C129.8 26.6461 129.965 26.6726 130.111 26.7256C130.259 26.7767 130.385 26.8488 130.489 26.9419C130.593 27.0332 130.672 27.141 130.727 27.2651C130.784 27.3893 130.812 27.5235 130.812 27.6678C130.812 27.7938 130.797 27.9051 130.768 28.0019C130.741 28.0969 130.7 28.1799 130.645 28.2512C130.592 28.3224 130.526 28.3826 130.448 28.4319C130.371 28.4812 130.283 28.5223 130.185 28.5552C130.422 28.63 130.599 28.7442 130.716 28.8976C130.833 29.0509 130.891 29.2436 130.891 29.4755C130.891 29.6727 130.855 29.8471 130.782 29.9986C130.709 30.1502 130.61 30.278 130.486 30.3821C130.362 30.4843 130.218 30.5619 130.053 30.6149C129.891 30.6678 129.718 30.6943 129.536 30.6943C129.336 30.6943 129.163 30.6715 129.015 30.6258C128.867 30.5802 128.738 30.5126 128.629 30.4231C128.519 30.3337 128.426 30.2241 128.35 30.0945C128.273 29.9648 128.207 29.8151 128.152 29.6453L128.451 29.522C128.502 29.5001 128.554 29.4892 128.607 29.4892C128.654 29.4892 128.696 29.4992 128.733 29.5193C128.771 29.5394 128.801 29.5686 128.821 29.6069C128.854 29.6708 128.889 29.7338 128.927 29.7959C128.968 29.858 129.015 29.9137 129.07 29.963C129.125 30.0105 129.189 30.0497 129.262 30.0808C129.336 30.11 129.425 30.1246 129.527 30.1246C129.642 30.1246 129.743 30.1063 129.829 30.0698C129.914 30.0315 129.986 29.9822 130.042 29.9219C130.101 29.8617 130.144 29.795 130.171 29.722C130.2 29.6471 130.215 29.5722 130.215 29.4974C130.215 29.4024 130.205 29.3166 130.185 29.2399C130.165 29.1614 130.123 29.0948 130.059 29.04C129.995 28.9852 129.903 28.9423 129.782 28.9112C129.663 28.8802 129.504 28.8647 129.303 28.8647V28.3826C129.469 28.3808 129.607 28.3653 129.716 28.3361C129.826 28.3068 129.913 28.2667 129.976 28.2156C130.042 28.1626 130.088 28.0996 130.113 28.0266C130.139 27.9535 130.152 27.8732 130.152 27.7855C130.152 27.5975 130.101 27.4559 129.998 27.361C129.896 27.2642 129.756 27.2158 129.579 27.2158C129.419 27.2158 129.285 27.2587 129.179 27.3446C129.074 27.4286 129 27.5372 128.958 27.6705C128.936 27.7399 128.906 27.7901 128.867 27.8211C128.829 27.8504 128.779 27.865 128.717 27.865C128.687 27.865 128.656 27.8622 128.623 27.8567L128.267 27.7938C128.295 27.6039 128.348 27.4377 128.426 27.2953C128.505 27.151 128.602 27.0314 128.719 26.9365C128.838 26.8397 128.973 26.7676 129.125 26.7201C129.278 26.6708 129.442 26.6461 129.618 26.6461ZM132.842 26.6461C133.024 26.6461 133.192 26.6735 133.343 26.7283C133.495 26.7813 133.624 26.857 133.732 26.9556C133.84 27.0542 133.924 27.1729 133.984 27.3117C134.044 27.4505 134.074 27.6048 134.074 27.7746C134.074 27.9207 134.052 28.0558 134.009 28.1799C133.967 28.3041 133.909 28.4228 133.836 28.536C133.765 28.6492 133.681 28.7588 133.584 28.8647C133.487 28.9706 133.386 29.0783 133.28 29.1879L132.387 30.1C132.475 30.0744 132.561 30.0552 132.645 30.0424C132.729 30.0278 132.809 30.0205 132.886 30.0205H133.902C133.975 30.0205 134.032 30.0415 134.074 30.0835C134.118 30.1237 134.14 30.1776 134.14 30.2451V30.6505H131.423V30.4259C131.423 30.3802 131.432 30.3328 131.45 30.2835C131.471 30.2342 131.502 30.1885 131.544 30.1465L132.746 28.9414C132.846 28.8391 132.936 28.7414 133.014 28.6483C133.095 28.5552 133.161 28.463 133.214 28.3717C133.269 28.2804 133.31 28.1882 133.338 28.095C133.367 28.0001 133.381 27.9006 133.381 27.7965C133.381 27.7015 133.368 27.6185 133.34 27.5472C133.313 27.4742 133.274 27.413 133.223 27.3637C133.171 27.3144 133.11 27.2779 133.039 27.2542C132.97 27.2286 132.891 27.2158 132.804 27.2158C132.641 27.2158 132.507 27.2569 132.401 27.3391C132.297 27.4213 132.224 27.5317 132.182 27.6705C132.162 27.7399 132.132 27.7901 132.091 27.8211C132.051 27.8504 132 27.865 131.938 27.865C131.911 27.865 131.88 27.8622 131.848 27.8567L131.492 27.7938C131.519 27.6039 131.572 27.4377 131.65 27.2953C131.729 27.151 131.827 27.0314 131.943 26.9365C132.062 26.8397 132.197 26.7676 132.349 26.7201C132.502 26.6708 132.667 26.6461 132.842 26.6461ZM135.932 29.0701C135.795 29.0701 135.661 29.0464 135.529 28.9989C135.398 28.9514 135.28 28.8802 135.176 28.7853C135.074 28.6885 134.991 28.5698 134.929 28.4292C134.867 28.2868 134.836 28.1206 134.836 27.9307C134.836 27.7536 134.869 27.5874 134.935 27.4322C135.001 27.277 135.093 27.141 135.211 27.0241C135.33 26.9072 135.473 26.815 135.639 26.7475C135.805 26.6799 135.988 26.6461 136.189 26.6461C136.392 26.6461 136.574 26.6781 136.734 26.742C136.897 26.8059 137.035 26.8954 137.148 27.0104C137.263 27.1254 137.351 27.2633 137.411 27.424C137.473 27.5847 137.504 27.7609 137.504 27.9526C137.504 28.075 137.493 28.1909 137.471 28.3005C137.451 28.41 137.421 28.5159 137.381 28.6182C137.342 28.7186 137.296 28.8172 137.241 28.914C137.186 29.0089 137.125 29.1048 137.058 29.2016L136.151 30.4944C136.12 30.5382 136.073 30.5756 136.011 30.6067C135.951 30.6359 135.882 30.6505 135.803 30.6505H135.181L136.411 29.1139C136.442 29.0756 136.471 29.0382 136.499 29.0016C136.526 28.9651 136.553 28.9286 136.578 28.8921C136.487 28.9505 136.386 28.9952 136.277 29.0263C136.167 29.0555 136.052 29.0701 135.932 29.0701ZM136.855 27.8841C136.855 27.7764 136.838 27.6805 136.806 27.5965C136.773 27.5107 136.726 27.4386 136.666 27.3802C136.606 27.3217 136.533 27.277 136.449 27.246C136.367 27.2149 136.277 27.1994 136.178 27.1994C136.076 27.1994 135.984 27.2167 135.902 27.2514C135.82 27.2843 135.749 27.3309 135.691 27.3911C135.634 27.4514 135.59 27.5235 135.559 27.6075C135.528 27.6897 135.513 27.7801 135.513 27.8787C135.513 28.0996 135.569 28.2685 135.683 28.3854C135.798 28.5004 135.96 28.5579 136.17 28.5579C136.28 28.5579 136.376 28.5406 136.46 28.5059C136.546 28.4712 136.618 28.4237 136.677 28.3635C136.735 28.3032 136.779 28.232 136.808 28.1498C136.839 28.0676 136.855 27.9791 136.855 27.8841Z" fill="#FDFDFD"/>
<path d="M153.331 7.25686C153.567 7.25686 153.774 7.30266 153.951 7.39426C154.13 7.48373 154.267 7.61368 154.363 7.7841C154.461 7.9524 154.51 8.14945 154.51 8.37526C154.51 8.60107 154.461 8.79706 154.363 8.96322C154.267 9.12939 154.13 9.25721 153.951 9.34668C153.774 9.43402 153.567 9.47769 153.331 9.47769H152.605V7.25686H153.331ZM153.331 9.18052C153.591 9.18052 153.79 9.11022 153.928 8.96962C154.067 8.82902 154.136 8.6309 154.136 8.37526C154.136 8.1175 154.067 7.91618 153.928 7.77132C153.79 7.62646 153.591 7.55403 153.331 7.55403H152.97V9.18052H153.331ZM156.485 8.55421C156.485 8.62025 156.48 8.6799 156.472 8.73315H155.127C155.137 8.87375 155.189 8.98666 155.283 9.07187C155.377 9.15708 155.492 9.19969 155.628 9.19969C155.824 9.19969 155.963 9.11767 156.044 8.95364H156.437C156.383 9.11554 156.286 9.24868 156.146 9.35307C156.007 9.45532 155.835 9.50645 155.628 9.50645C155.46 9.50645 155.309 9.46917 155.174 9.39461C155.042 9.31792 154.938 9.2114 154.861 9.07507C154.787 8.9366 154.749 8.77682 154.749 8.59575C154.749 8.41467 154.786 8.25597 154.858 8.11963C154.933 7.98116 155.036 7.87464 155.168 7.80008C155.302 7.72552 155.456 7.68824 155.628 7.68824C155.794 7.68824 155.942 7.72446 156.072 7.79689C156.202 7.86932 156.304 7.97157 156.376 8.10365C156.448 8.2336 156.485 8.38378 156.485 8.55421ZM156.104 8.43917C156.102 8.30496 156.054 8.19738 155.961 8.11643C155.867 8.03548 155.751 7.995 155.612 7.995C155.487 7.995 155.379 8.03548 155.29 8.11643C155.2 8.19525 155.147 8.30283 155.13 8.43917H156.104ZM157.207 7.97903C157.269 7.89382 157.353 7.82458 157.46 7.77132C157.568 7.71594 157.689 7.68824 157.821 7.68824C157.976 7.68824 158.117 7.72552 158.243 7.80008C158.368 7.87464 158.467 7.98116 158.54 8.11963C158.612 8.25597 158.649 8.41254 158.649 8.58936C158.649 8.76617 158.612 8.92488 158.54 9.06548C158.467 9.20395 158.367 9.31259 158.24 9.39141C158.114 9.46811 157.974 9.50645 157.821 9.50645C157.685 9.50645 157.563 9.47982 157.457 9.42656C157.352 9.37331 157.269 9.30514 157.207 9.22206V9.47769H156.843V7.11306H157.207V7.97903ZM158.278 8.58936C158.278 8.46793 158.252 8.36355 158.201 8.2762C158.152 8.18673 158.086 8.11963 158.003 8.07489C157.922 8.02802 157.835 8.00459 157.741 8.00459C157.649 8.00459 157.562 8.02802 157.479 8.07489C157.398 8.12176 157.332 8.18993 157.281 8.2794C157.232 8.36887 157.207 8.47432 157.207 8.59575C157.207 8.71718 157.232 8.82369 157.281 8.91529C157.332 9.00477 157.398 9.07294 157.479 9.1198C157.562 9.16667 157.649 9.1901 157.741 9.1901C157.835 9.1901 157.922 9.16667 158.003 9.1198C158.086 9.0708 158.152 9.0005 158.201 8.9089C158.252 8.8173 158.278 8.71078 158.278 8.58936ZM159.194 7.48373C159.128 7.48373 159.073 7.46136 159.028 7.41663C158.983 7.37189 158.961 7.3165 158.961 7.25047C158.961 7.18443 158.983 7.12904 159.028 7.0843C159.073 7.03957 159.128 7.0172 159.194 7.0172C159.258 7.0172 159.312 7.03957 159.357 7.0843C159.402 7.12904 159.424 7.18443 159.424 7.25047C159.424 7.3165 159.402 7.37189 159.357 7.41663C159.312 7.46136 159.258 7.48373 159.194 7.48373ZM159.373 7.717V9.47769H159.009V7.717H159.373ZM160.276 8.01418V8.98879C160.276 9.05483 160.291 9.10276 160.321 9.13258C160.353 9.16028 160.406 9.17412 160.481 9.17412H160.704V9.47769H160.417C160.253 9.47769 160.127 9.43935 160.04 9.36266C159.952 9.28596 159.909 9.16134 159.909 8.98879V8.01418H159.701V7.717H159.909V7.27922H160.276V7.717H160.704V8.01418H160.276Z" fill="white"/>
<path d="M152.47 5.08635C145.864 8.28284 140.353 13.0908 152.47 14.4519C167.616 16.1533 171.483 2.23305 149.892 1.76904" stroke="white" stroke-width="0.884615" stroke-linecap="round"/>
</g>
<defs>
<filter id="filter0_f_10756_284744" x="22.8248" y="-14.1514" width="94.494" height="94.4939" filterUnits="userSpaceOnUse" color-interpolation-filters="sRGB">
<feFlood flood-opacity="0" result="BackgroundImageFix"/>
<feBlend mode="normal" in="SourceGraphic" in2="BackgroundImageFix" result="shape"/>
<feGaussianBlur stdDeviation="11.4123" result="effect1_foregroundBlur_10756_284744"/>
</filter>
<filter id="filter1_f_10756_284744" x="-45.6493" y="-47.4755" width="112.069" height="112.069" filterUnits="userSpaceOnUse" color-interpolation-filters="sRGB">
<feFlood flood-opacity="0" result="BackgroundImageFix"/>
<feBlend mode="normal" in="SourceGraphic" in2="BackgroundImageFix" result="shape"/>
<feGaussianBlur stdDeviation="11.4123" result="effect1_foregroundBlur_10756_284744"/>
</filter>
<filter id="filter2_f_10756_284744" x="110.825" y="-14.1514" width="94.494" height="94.4939" filterUnits="userSpaceOnUse" color-interpolation-filters="sRGB">
<feFlood flood-opacity="0" result="BackgroundImageFix"/>
<feBlend mode="normal" in="SourceGraphic" in2="BackgroundImageFix" result="shape"/>
<feGaussianBlur stdDeviation="11.4123" result="effect1_foregroundBlur_10756_284744"/>
</filter>
<filter id="filter3_f_10756_284744" x="42.3507" y="-47.4755" width="112.069" height="112.069" filterUnits="userSpaceOnUse" color-interpolation-filters="sRGB">
<feFlood flood-opacity="0" result="BackgroundImageFix"/>
<feBlend mode="normal" in="SourceGraphic" in2="BackgroundImageFix" result="shape"/>
<feGaussianBlur stdDeviation="11.4123" result="effect1_foregroundBlur_10756_284744"/>
</filter>
<clipPath id="clip0_10756_284744">
<rect width="78" height="50" rx="3.65194" fill="white"/>
</clipPath>
<clipPath id="clip1_10756_284744">
<rect x="88" width="78" height="50" rx="3.65194" fill="white"/>
</clipPath>
</defs>
</svg>
