<svg width="24" height="24" viewBox="0 0 24 24" fill="none" xmlns="http://www.w3.org/2000/svg">
<path d="M21.8136 19.1156H2.18795C1.40045 19.1156 0.757324 18.4725 0.757324 17.685V6.315C0.757324 5.5275 1.40045 4.88438 2.18795 4.88438H21.8136C22.6011 4.88438 23.2442 5.5275 23.2442 6.315V17.685C23.2442 18.4725 22.6011 19.1156 21.8136 19.1156Z" fill="#FFC107"/>
<path d="M0.755859 7.29H23.2465V10.3031H0.755859V7.29Z" fill="#424242"/>
<path d="M21.4126 13.9012H2.60076C2.41701 13.9012 2.26514 13.7512 2.26514 13.5656V11.9887C2.26514 11.805 2.41514 11.6531 2.60076 11.6531H21.4126C21.5964 11.6531 21.7483 11.8031 21.7483 11.9887V13.5656C21.7464 13.7494 21.5964 13.9012 21.4126 13.9012Z" fill="white"/>
<path d="M4.49609 13.2169C4.60109 13.0144 4.62922 12.7781 4.72297 12.57C4.81672 12.3619 5.02109 12.1687 5.24609 12.2044C5.45422 12.2381 5.58359 12.4462 5.66047 12.6412C5.76734 12.9131 5.82547 13.2037 5.83297 13.4962C5.83484 13.5562 5.83109 13.6219 5.79172 13.6687C5.72234 13.7475 5.57984 13.7081 5.52547 13.6181C5.47109 13.5281 5.48422 13.4137 5.50859 13.3106C5.62484 12.8325 5.99984 12.4256 6.46672 12.2719C6.51547 12.255 6.56609 12.2419 6.61672 12.2512C6.72547 12.2719 6.78547 12.3844 6.83422 12.4819C6.94859 12.705 7.08734 12.9169 7.24672 13.11C7.31047 13.1887 7.38359 13.2656 7.48109 13.2956C7.80172 13.3894 7.98734 12.9169 8.29672 12.7912C8.66797 12.6412 9.02984 13.0331 9.42359 13.1062C9.99922 13.2131 10.3048 12.765 10.8092 12.6506C10.8767 12.6356 10.9498 12.6262 11.0173 12.645C11.1411 12.6806 11.218 12.7987 11.2911 12.9056C11.4617 13.1569 11.7055 13.4044 12.0092 13.4062C12.2023 13.4081 12.3805 13.3087 12.5567 13.2244C13.1811 12.9262 13.918 12.8025 14.5705 13.0312" stroke="#424242" stroke-width="0.5" stroke-miterlimit="10" stroke-linecap="round" stroke-linejoin="round"/>
</svg>
