<svg width="60" height="60" viewBox="0 0 60 60" fill="none" xmlns="http://www.w3.org/2000/svg">
<path d="M42.5 46.0751H32.5L21.375 53.475C19.725 54.575 17.5 53.4001 17.5 51.4001V46.0751C10 46.0751 5 41.0751 5 33.5751V18.575C5 11.075 10 6.07495 17.5 6.07495H42.5C50 6.07495 55 11.075 55 18.575V33.5751C55 41.0751 50 46.0751 42.5 46.0751Z" stroke="#83D300" stroke-width="2" stroke-miterlimit="10" stroke-linecap="round" stroke-linejoin="round"/>
<path d="M29.9995 28.3999V27.875C29.9995 26.175 31.0496 25.275 32.0996 24.55C33.1246 23.85 34.1495 22.95 34.1495 21.3C34.1495 19 32.2995 17.1499 29.9995 17.1499C27.6995 17.1499 25.8496 19 25.8496 21.3" stroke="#83D300" stroke-width="2" stroke-linecap="round" stroke-linejoin="round"/>
<path d="M29.9887 34.375H30.0112" stroke="#83D300" stroke-width="1.5" stroke-linecap="round" stroke-linejoin="round"/>
</svg>
