<svg width="46" height="40" viewBox="0 0 46 40" fill="none" xmlns="http://www.w3.org/2000/svg">
<path d="M18.9214 11.1085C19.7635 10.604 20.6087 10.1026 21.4489 9.59515C22.3818 9.03101 23.2321 9.20911 23.6133 10.0488C23.6829 10.2031 23.7061 10.3563 23.7061 10.5214C23.7051 16.3638 23.7535 22.2081 23.6678 28.0495C23.6486 29.3767 24.0793 30.3985 24.9175 31.285C25.6719 32.082 26.6412 32.6262 27.6941 32.9973C27.7718 33.0242 27.8505 33.0501 27.9241 33.0839C28.4385 33.3177 28.4748 33.6132 27.9967 33.9147C27.0698 34.5007 26.1308 35.0688 25.1928 35.6379C22.9245 37.014 20.6511 38.383 18.3878 39.766C18.0459 39.9749 17.7241 40.0714 17.3258 39.9401C15.5062 39.3372 13.8653 38.5024 12.9575 36.7075C12.7276 36.2528 12.6045 35.7703 12.6096 35.2539C12.6196 34.245 12.6156 33.2361 12.6096 32.2263C12.6085 32.0561 12.6761 31.8631 12.5006 31.7258C12.4078 31.3706 12.5077 31.0104 12.4694 30.6542C12.4754 30.313 12.4552 29.9707 12.4996 29.6304C12.5067 29.5707 12.5198 29.513 12.5349 29.4543C12.6045 29.1151 12.5672 28.7738 12.5652 28.4335C12.55 26.4347 12.543 24.4368 12.5682 22.438C12.5712 21.3505 12.5511 20.262 12.5763 19.1745C12.5924 18.4572 12.4764 17.7507 12.4542 17.0364C12.4371 16.4971 12.07 16.1857 11.5889 16.0235C11.1047 15.8603 10.6841 16.0245 10.3281 16.3678C9.97611 16.708 9.92165 17.1717 9.80162 17.6085C9.76733 17.7796 9.78145 17.9517 9.79154 18.1238C9.59183 20.0799 9.7643 22.043 9.67656 24.001C9.46778 25.1074 8.48238 25.6676 7.42537 25.2477C6.96747 25.0656 6.41778 24.9989 6.1616 24.4796C6.09806 24.2398 6.11218 23.995 6.11218 23.7523C6.11117 19.0422 6.11117 14.3331 6.11218 9.623C6.11218 9.39616 6.10108 9.16831 6.15151 8.94445C6.23825 8.64497 6.44602 8.69273 6.65984 8.78227C7.02395 8.9335 7.38805 9.08175 7.74207 9.25686C10.1254 10.4379 12.5147 11.6059 14.892 12.7959C15.3076 13.0038 15.6424 13.0118 16.0337 12.7571C16.7337 12.3014 17.4569 11.8795 18.173 11.4477C18.407 11.3084 18.6188 11.1095 18.9214 11.1085Z" fill="#F0F0F1"/>
<path d="M18.921 11.1085C17.8448 11.7701 16.7666 12.4258 15.6965 13.0964C15.4575 13.2466 15.2891 13.1073 15.1045 13.0178C12.5073 11.7492 9.91424 10.4747 7.31509 9.21011C6.97822 9.04595 6.65749 8.83999 6.28128 8.76438C5.96256 8.0102 6.26615 7.37742 6.69682 6.77945C7.04479 6.2969 7.5864 6.05911 8.09171 5.79147C11.2284 4.12493 14.3359 2.40765 17.4767 0.749067C17.7359 0.612759 17.982 0.530178 18.2705 0.58291C18.8 0.815728 18.9291 1.24555 18.9271 1.77884C18.916 4.88805 18.921 7.99827 18.921 11.1085Z" fill="#457DBE"/>
<path d="M18.2698 0.581904C17.3126 0.857505 16.4957 1.41766 15.6303 1.87434C13.6393 2.92501 11.6665 4.0095 9.68562 5.07907C8.93321 5.48601 8.16869 5.87006 7.43141 6.30087C6.48434 6.85307 6.19891 7.73161 6.2806 8.76437C6.28161 14.0436 6.28161 19.3238 6.28262 24.603C6.44904 24.8676 6.42887 25.1631 6.42987 25.4556C6.44097 27.6356 6.40769 29.8155 6.44904 31.9944C6.41979 32.7407 6.40163 33.4869 6.44399 34.2331C6.45106 34.3624 6.46719 34.4947 6.35625 34.5972C6.18479 34.5405 6.01131 34.4898 5.84388 34.4251C5.1076 34.1395 5.00473 33.9883 5.00473 33.1864C5.00473 25.0109 5.00372 16.8364 5.00674 8.66089C5.00674 8.2062 4.97447 7.75051 5.05112 7.29582C5.17215 6.57349 5.54735 6.01831 6.19185 5.67107C9.60594 3.8324 13.0281 2.00866 16.4442 0.173975C17.1845 -0.224005 17.7352 0.124227 18.2698 0.581904Z" fill="#58595B"/>
<path d="M6.35633 34.5963C6.25143 33.7476 6.17882 32.8989 6.37247 32.0522C6.40071 31.8612 6.56612 31.8044 6.7053 31.7229C8.47741 30.6951 10.2667 29.6951 12.0398 28.6694C12.1245 28.6196 12.2102 28.5719 12.302 28.534C12.539 28.4375 12.6853 28.4664 12.659 28.7688C12.6369 29.0265 12.6883 29.2872 12.6308 29.5439L12.6187 29.5897C12.3423 29.9568 11.9097 30.1071 11.5355 30.3369C11.3398 30.4573 11.129 30.5528 10.9515 30.7C10.8163 30.8125 10.7246 30.9538 10.8123 31.1269C10.9132 31.3269 11.0998 31.3209 11.2843 31.2592C11.5829 31.1587 11.8229 30.9448 12.1104 30.8234C12.2697 30.7558 12.4008 30.5946 12.6056 30.6632C12.6177 31.0224 12.7468 31.3935 12.4987 31.7268C10.7931 32.6909 9.08458 33.6491 7.38409 34.6241C7.01797 34.8341 6.69118 34.9027 6.35633 34.5963Z" fill="#404041"/>
<path d="M12.6315 29.5449C12.6315 29.2255 12.6315 28.9051 12.6315 28.4833C10.4862 29.707 8.42865 30.8791 6.37212 32.0521C6.2521 31.9556 6.27227 31.8213 6.27227 31.693C6.2753 29.329 6.27933 26.965 6.28236 24.601C6.64041 24.7661 6.99443 24.9412 7.35752 25.0935C8.3399 25.5054 9.19922 25.1154 9.54819 24.1085C9.55425 23.7055 9.76706 23.4737 10.1423 23.3304C10.8584 23.0578 11.5311 22.6857 12.2411 22.3972C12.3824 22.3404 12.5286 22.2131 12.6869 22.3683C12.6859 24.6676 12.6859 26.966 12.6829 29.2653C12.6839 29.3598 12.6496 29.4523 12.6315 29.5449Z" fill="#457DBE"/>
<path d="M12.6883 22.3703C11.7161 22.7125 10.8184 23.22 9.86428 23.603C9.60103 23.7085 9.69181 23.9662 9.54859 24.1094C9.58893 22.0887 9.44369 20.065 9.64743 18.0472C9.72206 17.893 9.69685 17.7358 9.66256 17.5776C9.77754 17.1925 9.80174 16.7816 10.0579 16.4394C10.414 15.9628 11.0645 15.6952 11.5708 15.8424C12.2355 16.0354 12.5784 16.521 12.6228 17.2035C12.7358 18.9258 12.7105 20.648 12.6883 22.3703Z" fill="#BABCBE"/>
<path d="M22.1185 15.8545C22.1538 16.0823 22.059 16.2505 21.8533 16.3748C19.9329 17.5319 18.0166 18.697 16.0871 19.8402C15.958 19.9168 15.7654 20.2302 15.6181 19.9775C15.49 19.7576 15.5223 19.4343 15.8269 19.2552C16.3907 18.9229 16.9525 18.5856 17.5133 18.2483C18.9435 17.3867 20.3767 16.53 21.7988 15.6555C22.0974 15.4724 22.1347 15.5838 22.1185 15.8545Z" fill="#CFD1D2"/>
<path d="M22.0689 23.0847C22.2081 23.5234 22.0941 23.7771 21.6957 24.0129C19.6715 25.2109 17.6694 26.4446 15.6341 27.6803C15.4908 27.2018 15.6199 26.9421 16.0526 26.6864C17.9397 25.573 19.7975 24.4099 21.6675 23.2677C21.7885 23.1941 21.9287 23.1473 22.0689 23.0847Z" fill="#CFD1D2"/>
<path d="M15.6276 35.1843C15.4713 34.7217 15.6528 34.464 16.0512 34.2282C18.013 33.0691 19.9575 31.8821 21.9092 30.7061C21.9616 30.6742 22.0191 30.6523 22.0796 30.6235C22.2107 31.0603 22.0837 31.3299 21.6943 31.5627C19.7245 32.7387 17.7699 33.9416 15.8092 35.1336C15.7567 35.1644 15.6871 35.1684 15.6276 35.1843Z" fill="#CFD1D2"/>
<path d="M22.0759 19.299C22.2171 19.7636 22.0617 20.0223 21.6341 20.273C19.6744 21.4252 17.7429 22.6231 15.8004 23.8031C15.761 23.827 15.7086 23.8319 15.642 23.8528C15.4968 23.4509 15.5765 23.1972 15.9799 22.9584C17.9779 21.7744 19.9548 20.5566 21.9397 19.3517C21.979 19.3278 22.0264 19.3179 22.0759 19.299Z" fill="#CFD1D2"/>
<path d="M22.1371 27.1789C22.1835 27.4644 21.9969 27.5908 21.7902 27.7161C19.9838 28.8086 18.1794 29.905 16.375 31.0005C16.2772 31.0602 16.1864 31.1547 16.0815 31.1736C15.9121 31.2044 15.7709 31.5696 15.6145 31.3059C15.4986 31.1089 15.5137 30.7886 15.7931 30.6144C16.0845 30.4324 16.3781 30.2533 16.6716 30.0752C18.3378 29.0653 20.0029 28.0564 21.6691 27.0475C21.7922 26.9729 21.9082 26.8356 22.0605 26.9142C22.119 26.9431 22.1139 27.0873 22.1371 27.1789Z" fill="#CFD1D2"/>
<path d="M12.6054 30.6633C12.207 30.8921 11.8116 31.1259 11.4102 31.3498C11.1348 31.503 10.8484 31.5229 10.681 31.2185C10.5176 30.922 10.6638 30.6971 10.9503 30.5379C11.51 30.2275 12.0638 29.9071 12.6195 29.5897C12.6144 29.9479 12.6104 30.3061 12.6054 30.6633Z" fill="#919396"/>
<path d="M9.66311 17.5777C9.77305 17.7379 9.78313 17.8951 9.64697 18.0473C9.65302 17.8911 9.65807 17.7349 9.66311 17.5777Z" fill="#A9B5C5"/>
<path d="M34.5373 0.696293C35.8443 0.923085 36.5408 1.81025 36.9482 2.96755C37.6079 4.84082 37.4505 6.73187 36.9449 8.60291C36.3176 10.9253 35.2584 13.0042 33.352 14.5696C32.7068 15.0998 31.9713 15.4356 31.1543 15.6012C30.5828 15.6357 30.0437 15.5134 29.5292 15.2688C29.4901 15.2422 29.451 15.2155 29.412 15.1899L29.4075 15.1921C28.5983 14.6051 28.1328 13.7613 27.8784 12.8486C27.4442 11.2911 27.5234 9.68462 27.9096 8.1382C28.3762 6.26605 29.1117 4.47728 30.3774 2.97756C31.4601 1.69796 32.6734 0.592902 34.5373 0.696293ZM35.9805 6.34165C35.9805 5.94365 36.0118 5.54232 35.9705 5.14877C35.9392 4.86194 35.8332 4.57623 35.7227 4.30608C35.0318 2.61958 33.6779 2.19379 32.1722 3.2277C30.9299 4.08151 30.1397 5.29551 29.6095 6.68517C28.9342 8.45394 28.6463 10.2449 29.3104 12.0882C29.7412 13.2833 30.9422 13.8858 32.0505 13.4478C32.6042 13.2288 33.1154 12.9264 33.5272 12.4917C35.1601 10.7674 35.9705 8.70741 35.9805 6.34165Z" fill="#F5CC11"/>
<path d="M34.5375 0.696296C32.6735 0.592905 31.4603 1.69796 30.3787 2.97979C29.1119 4.47951 28.3775 6.26828 27.9109 8.13932C27.5247 9.68573 27.4444 11.2922 27.8797 12.8497C28.1341 13.7624 28.5996 14.6062 29.4088 15.1932C29.2983 15.191 29.1878 15.1899 29.0784 15.1877C28.8686 15.1076 28.6654 15.0054 28.4489 14.952C27.0012 14.5962 26.2356 13.5968 25.8661 12.236C25.2243 9.8725 25.6652 7.59902 26.5235 5.38112C27.124 3.83026 27.9868 2.43393 29.2369 1.30552C30.564 0.108192 32.0284 -0.425438 33.7685 0.393906C34.0174 0.510637 34.2808 0.59624 34.5375 0.696296Z" fill="#E68927"/>
<path d="M35.9807 6.34165C35.9706 8.70741 35.1603 10.7663 33.5262 12.4917C33.1155 12.9264 32.6032 13.2288 32.0496 13.4478C30.9412 13.8858 29.7402 13.2833 29.3094 12.0882C28.6453 10.2449 28.9344 8.45393 29.6085 6.68517C30.1387 5.29551 30.9278 4.08039 32.1712 3.2277C33.6769 2.19379 35.0308 2.61958 35.7217 4.30607C35.8322 4.57622 35.9394 4.86194 35.9695 5.14876C36.013 5.54231 35.9807 5.94365 35.9807 6.34165ZM33.2974 6.72631C33.5474 6.75521 33.8622 6.44726 33.9582 6.09484C34.043 5.78356 33.7562 5.84693 33.6166 5.75799C33.514 5.6924 33.3041 5.75799 33.3264 5.53676C33.341 5.39668 33.4771 5.1999 33.2003 5.19101C32.9816 5.18434 32.7751 5.25882 32.7695 5.53564C32.765 5.77355 32.6344 5.9103 32.4425 6.02814C32.1545 6.20602 31.9491 6.46838 31.7884 6.75855C31.2616 7.70796 31.4524 8.23603 32.4525 8.63292C32.7628 8.75632 32.842 8.97089 32.6634 9.25104C32.4592 9.57122 32.1779 9.7969 31.7973 9.56566C31.3263 9.27995 31.2683 9.69573 31.1198 9.92697C30.8932 10.2794 31.218 10.3194 31.4323 10.4061C31.5998 10.4739 31.7504 10.5384 31.7292 10.7686C31.7181 10.8908 31.6544 11.0821 31.8676 11.0943C32.0451 11.1043 32.2014 11.0243 32.2773 10.833C32.3509 10.6507 32.332 10.4339 32.5697 10.3172C32.9793 10.116 33.197 9.72464 33.3878 9.33442C33.8354 8.41836 33.6669 8.02925 32.6992 7.71019C32.5273 7.65349 32.3599 7.60679 32.3364 7.39334C32.313 7.17656 32.3476 6.97867 32.5351 6.83192C32.7751 6.64626 33.0307 6.58845 33.2974 6.72631Z" fill="#F49C1D"/>
<path d="M33.2976 6.72631C33.0308 6.58846 32.7752 6.64627 32.5353 6.83415C32.3489 6.9809 32.3131 7.17878 32.3366 7.39557C32.36 7.60902 32.5274 7.65572 32.6993 7.71241C33.6659 8.03259 33.8356 8.42059 33.388 9.33665C33.1983 9.72576 32.9795 10.1182 32.5699 10.3194C32.3321 10.4361 32.35 10.6529 32.2774 10.8353C32.2015 11.0265 32.0453 11.1065 31.8678 11.0965C31.6546 11.0843 31.7182 10.8931 31.7294 10.7708C31.7506 10.5407 31.5999 10.4762 31.4325 10.4084C31.2182 10.3216 30.8934 10.2816 31.12 9.9292C31.2684 9.69796 31.3265 9.28217 31.7975 9.56789C32.1792 9.79913 32.4605 9.57345 32.6636 9.25327C32.8422 8.97311 32.763 8.75855 32.4527 8.63515C31.4515 8.23826 31.2606 7.71019 31.7886 6.76077C31.9493 6.47061 32.1558 6.20713 32.4426 6.03037C32.6335 5.91253 32.7641 5.77578 32.7697 5.53787C32.7752 5.26105 32.9806 5.18545 33.2005 5.19324C33.4773 5.20213 33.3411 5.39891 33.3266 5.53898C33.3043 5.76022 33.5152 5.69463 33.6168 5.76022C33.7563 5.84916 34.0432 5.7869 33.9584 6.09707C33.8624 6.44727 33.5476 6.75522 33.2976 6.72631Z" fill="#FCC986"/>
</svg>
