<svg width="24" height="24" viewBox="0 0 24 24" fill="none" xmlns="http://www.w3.org/2000/svg">
<g clip-path="url(#clip0_11123_1877)">
<path d="M12.028 23.9025C18.5872 23.9025 23.9045 18.5736 23.9045 12.0001C23.9045 5.42656 18.5872 0.0976562 12.028 0.0976562C5.4687 0.0976562 0.151367 5.42656 0.151367 12.0001C0.151367 18.5736 5.4687 23.9025 12.028 23.9025Z" fill="url(#paint0_radial_11123_1877)"/>
<path d="M15.2314 9.0719H12.4199C12.4073 9.0719 12.3946 9.07011 12.3823 9.07266C11.9349 9.1699 11.0918 9.62822 11.0962 10.6292C11.073 11.0143 11.2412 11.6274 12.0448 11.8829C12.0472 11.8829 14.049 11.8829 14.049 11.8829C14.1377 11.8829 14.685 12.0084 14.6487 12.9651C14.6119 13.9297 13.7914 14.055 13.6734 14.1828H10.568C10.4701 14.1828 10.3906 14.2764 10.3906 14.3745C10.3906 14.4726 10.4701 14.5661 10.568 14.5661H13.6905C13.7005 14.5661 13.7105 14.5194 13.7204 14.5176C14.1467 14.4445 14.9633 14.0062 15.0032 12.9579C15.0547 11.6021 14.076 11.5165 14.066 11.5158C14.0674 11.5154 12.0879 11.5101 12.0879 11.5101C11.4121 11.3861 11.4485 10.667 11.4506 10.6357C11.4508 10.6314 11.451 10.6426 11.451 10.6383C11.4437 9.73019 12.3048 9.45522 12.4408 9.45522H15.2316C15.3295 9.45522 15.4089 9.36169 15.4089 9.26356C15.4088 9.16543 15.3293 9.0719 15.2314 9.0719Z" fill="white"/>
<path d="M19.5118 9.05184C19.4956 9.04724 19.4788 9.0719 19.462 9.0719H17.3612C16.4102 9.0719 15.9807 10.1755 15.963 10.2236C15.9601 10.2314 15.9579 10.2257 15.956 10.2339C15.9342 10.3326 15.4222 12.6535 15.4394 13.4198C15.4558 14.1407 16.1884 14.4027 16.5734 14.444C16.5798 14.4448 16.5862 14.4385 16.5927 14.4385H19.5132C19.6124 14.4385 19.693 14.3462 19.693 14.2468C19.693 14.1474 19.6125 14.0552 19.5132 14.0552H16.6036C16.5122 14.0552 15.8117 13.9481 15.799 13.3901C15.7923 13.0906 15.8773 12.5174 15.9798 11.9384L20.0443 11.908C20.131 11.9073 20.205 11.8464 20.2199 11.7606C20.2278 11.7159 20.4104 10.6742 20.4104 10.0495C20.4102 9.30624 19.5485 9.06257 19.5118 9.05184ZM19.8901 11.5525L16.0457 11.5847C16.1638 10.9569 16.2839 10.4424 16.3042 10.35C16.3452 10.2472 16.6978 9.45509 17.3612 9.45509H19.4335C19.5457 9.45509 20.0508 9.65391 20.0508 10.0752C20.0508 10.5358 19.9404 11.2387 19.8901 11.5525Z" fill="white"/>
<path d="M10.5612 10.1508C10.6667 9.43184 9.7606 9.0719 9.59104 9.0719C9.59078 9.0719 9.59052 9.0719 9.59052 9.0719C8.85886 9.0719 7.75046 9.09707 7.63483 9.09311C7.6194 9.09145 7.60347 9.10167 7.5874 9.1041C7.1343 9.17642 6.51904 9.76123 6.32143 10.3022L6.32449 10.3059C6.30472 10.3662 6.28739 10.4593 6.261 10.599C6.229 10.7681 6.18425 11.0102 6.13083 11.2999C6.02425 11.8787 5.88362 12.6508 5.74339 13.4226C5.46291 14.9659 5.18447 16.5093 5.18447 16.5093C5.16726 16.6045 5.23037 16.6957 5.32535 16.713C5.3358 16.7149 5.34625 16.7159 5.35658 16.7159C5.43945 16.7159 5.51314 16.6566 5.52831 16.5718C5.64611 15.9194 5.83926 14.8509 6.03279 13.7857C6.48907 14.3626 7.05666 14.4232 7.08509 14.4258C7.0921 14.4266 7.09912 14.4271 7.10638 14.4265L8.90284 14.375C8.91827 14.3746 8.93331 14.3722 8.94798 14.3677C9.80025 14.1115 10.0565 13.2301 10.0671 13.1927C10.0687 13.1864 10.0703 13.1801 10.0713 13.1735L10.5589 10.1799C10.5602 10.1736 10.5603 10.1572 10.5612 10.1508ZM10.2124 10.144L9.72834 13.1053C9.7031 13.1847 9.4805 13.8284 8.86919 14.0254L7.10982 14.0757C7.02874 14.0644 6.47977 13.9632 6.12407 13.2842C6.38313 11.8591 6.62103 10.5603 6.65175 10.4225C6.81481 9.98343 7.34224 9.51169 7.63814 9.46097C7.7052 9.46506 7.79687 9.46519 7.92372 9.46544C8.10896 9.4657 8.35642 9.46557 8.60362 9.46506C9.01325 9.46442 9.42262 9.46301 9.55075 9.4625C9.7583 9.46097 10.2629 9.81401 10.2124 10.144Z" fill="white"/>
<path d="M2.46889 8.97022C2.74511 8.97022 2.96904 8.73081 2.96904 8.43549C2.96904 8.14016 2.74511 7.90076 2.46889 7.90076C2.19267 7.90076 1.96875 8.14016 1.96875 8.43549C1.96875 8.73081 2.19267 8.97022 2.46889 8.97022Z" fill="#FDB718"/>
<path d="M1.96408 6.74747C1.96408 6.5125 1.82142 6.31509 1.62432 6.24341C1.45782 6.54534 1.30394 6.85531 1.16357 7.17257C1.24746 7.24042 1.35073 7.2822 1.46394 7.2822C1.74021 7.2822 1.96408 7.04276 1.96408 6.74747Z" fill="#FDB718"/>
<path d="M0.954905 8.43545C0.954905 8.29043 0.900345 8.15921 0.812438 8.06287C0.709452 8.35726 0.617584 8.65676 0.537598 8.96111C0.774233 8.91831 0.954905 8.70007 0.954905 8.43545Z" fill="#FDB718"/>
<path d="M2.53872 15.4849C2.81494 15.4849 3.03886 15.2455 3.03886 14.9501C3.03886 14.6548 2.81494 14.4154 2.53872 14.4154C2.2625 14.4154 2.03857 14.6548 2.03857 14.9501C2.03857 15.2455 2.2625 15.4849 2.53872 15.4849Z" fill="#FDB718"/>
<path d="M0.772991 14.9501C0.772991 14.7272 0.617747 14.5446 0.416504 14.5142C0.473491 14.7783 0.538783 15.0393 0.613019 15.2966C0.709743 15.2156 0.772991 15.0913 0.772991 14.9501Z" fill="#FDB718"/>
<path d="M1.96179 16.6938C1.96179 16.3985 1.73792 16.1591 1.46165 16.1591C1.26442 16.1591 1.09563 16.2821 1.01416 16.4593C1.11768 16.7154 1.22962 16.9671 1.3501 17.214C1.38605 17.2228 1.42315 17.2284 1.46165 17.2284C1.73779 17.2285 1.96179 16.9891 1.96179 16.6938Z" fill="#FDB718"/>
<path d="M2.81055 13.2884H1.80759C1.74257 13.1607 1.55631 12.9408 1.33396 12.9408C1.05769 12.9408 0.833821 13.1917 0.833821 13.487C0.833821 13.7823 1.05769 14.0321 1.33396 14.0321C1.55631 14.0321 1.74257 13.9272 1.80759 13.6716H2.62863H2.91127H2.93524L3.98716 11.755H5.60947V11.4995H2.95003L1.8568 9.58289H1.78056H1.49919H0.392068C0.36606 9.70989 0.342602 9.83779 0.320547 9.9662H1.69782L2.59255 11.4995H0.159272C0.155829 11.5845 0.153025 11.6695 0.151367 11.755H3.68055L2.81055 13.2884Z" fill="#FDB718"/>
<path d="M6.9144 7.47461H7.45062C7.45062 7.47461 7.60782 7.52099 7.58002 7.70626L7.47829 8.41975H6.91427C6.91427 8.41975 6.66465 8.32711 6.79405 8.0584C6.79405 8.0584 6.91198 7.91479 7.01601 7.91479L7.5326 7.93216" stroke="white" stroke-width="0.180123" stroke-miterlimit="10"/>
<path d="M8.54181 7.47461H8.00546C8.00546 7.47461 7.8206 7.56724 7.77432 7.80822C7.77432 7.80822 7.6495 8.16037 7.79739 8.41975L7.85986 8.43367H8.3637" stroke="white" stroke-width="0.180123" stroke-miterlimit="10"/>
<path d="M8.85209 7.04138L8.77402 7.47466L8.59961 8.44292" stroke="white" stroke-width="0.180123" stroke-miterlimit="10"/>
<path d="M8.74121 7.65493C8.74121 7.65493 8.80534 7.52779 8.91625 7.47451C8.91625 7.47451 9.32078 7.43516 9.39243 7.53712C9.39243 7.53712 9.47339 7.57647 9.46867 7.69236L9.34386 8.41978" stroke="white" stroke-width="0.180123" stroke-miterlimit="10"/>
</g>
<defs>
<radialGradient id="paint0_radial_11123_1877" cx="0" cy="0" r="1" gradientUnits="userSpaceOnUse" gradientTransform="translate(12.2403 11.9574) scale(11.8764 11.9027)">
<stop offset="0.3155" stop-color="#2D5CA8"/>
<stop offset="0.5312" stop-color="#285496"/>
<stop offset="0.7289" stop-color="#1F4272"/>
<stop offset="1" stop-color="#0D2D4D"/>
</radialGradient>
<clipPath id="clip0_11123_1877">
<rect width="24" height="24" fill="white"/>
</clipPath>
</defs>
</svg>
