<svg width="24" height="24" viewBox="0 0 24 24" fill="none" xmlns="http://www.w3.org/2000/svg">
<path d="M21.8153 4.64126C21.7254 4.53863 21.6153 4.45565 21.4919 4.39752C21.3685 4.33939 21.2344 4.30735 21.0981 4.30341C18.9796 4.24803 16.299 1.9828 14.5267 1.09388C13.4319 0.546491 12.7091 0.185568 12.1664 0.090491C12.0562 0.0744319 11.9442 0.0747429 11.8341 0.0914141C11.2913 0.186491 10.5685 0.547414 9.47467 1.0948C7.70237 1.9828 5.02175 4.24803 2.90329 4.30341C2.76683 4.30755 2.63268 4.33968 2.50914 4.39779C2.38561 4.45591 2.27533 4.53877 2.18514 4.64126C1.99819 4.85277 1.90173 5.12921 1.91652 5.41111C2.3716 14.6631 5.69006 20.389 11.5128 23.7166C11.6642 23.8025 11.8322 23.8468 11.9993 23.8468C12.1664 23.8468 12.3344 23.8025 12.4867 23.7166C18.3094 20.389 21.627 14.6631 22.083 5.41111C22.0986 5.12925 22.0024 4.8526 21.8153 4.64126ZM17.1851 8.28003L12.2716 15.5308C12.0953 15.7911 11.8184 15.9637 11.5442 15.9637C11.2691 15.9637 10.9636 15.8133 10.7707 15.6203L7.30729 12.156C7.19421 12.0425 7.13072 11.8889 7.13072 11.7286C7.13072 11.5684 7.19421 11.4148 7.30729 11.3013L8.16298 10.4437C8.27671 10.3311 8.4303 10.2679 8.59037 10.2679C8.75043 10.2679 8.90402 10.3311 9.01775 10.4437L11.2701 12.696L15.183 6.92034C15.2735 6.78817 15.4127 6.69719 15.5701 6.66727C15.7274 6.63735 15.8903 6.67092 16.023 6.76064L17.0245 7.44003C17.1568 7.53042 17.248 7.66951 17.2781 7.8269C17.3082 7.98429 17.2748 8.1472 17.1851 8.28003Z" fill="#00660A"/>
</svg>
